<svg width="26" height="26" viewBox="0 0 26 26" fill="none" xmlns="http://www.w3.org/2000/svg">
<path d="M14.5545 11.6901L14.5656 2.21561C14.5656 1.80023 14.4006 1.40185 14.1068 1.10813C13.8131 0.814406 13.4147 0.649395 12.9994 0.649395C12.584 0.649395 12.1856 0.814406 11.8919 1.10813C11.5981 1.40185 11.4331 1.80022 11.4331 2.21561L11.4442 11.6901L1.96966 11.6791C1.55427 11.6791 1.1559 11.8441 0.862173 12.1378C0.56845 12.4315 0.403439 12.8299 0.403439 13.2453C0.403439 13.6607 0.56845 14.0591 0.862173 14.3528C1.1559 14.6465 1.55427 14.8115 1.96966 14.8115L11.4442 14.8005L11.4331 24.275C11.4323 24.4809 11.4722 24.685 11.5506 24.8754C11.629 25.0658 11.7444 25.2388 11.89 25.3844C12.0356 25.53 12.2086 25.6453 12.399 25.7237C12.5894 25.8021 12.7934 25.8421 12.9994 25.8412C13.2053 25.8421 13.4093 25.8021 13.5997 25.7237C13.7901 25.6453 13.9631 25.53 14.1087 25.3844C14.2543 25.2388 14.3697 25.0658 14.4481 24.8754C14.5265 24.685 14.5664 24.4809 14.5656 24.275L14.5545 14.8005L24.0291 14.8115C24.235 14.8124 24.439 14.7724 24.6294 14.694C24.8198 14.6156 24.9928 14.5003 25.1384 14.3547C25.284 14.2091 25.3994 14.0361 25.4778 13.8457C25.5562 13.6553 25.5961 13.4512 25.5953 13.2453C25.5961 13.0394 25.5562 12.8353 25.4778 12.6449C25.3994 12.4545 25.284 12.2815 25.1384 12.1359C24.9928 11.9903 24.8198 11.875 24.6294 11.7966C24.439 11.7182 24.235 11.6783 24.0291 11.6791L14.5545 11.6901Z" fill="black"/>
</svg>
