<svg width="28" height="23" viewBox="0 0 28 23" fill="none" xmlns="http://www.w3.org/2000/svg">
<path d="M14.5 22.875C13.3986 22.875 12.3619 22.446 11.5836 21.6664C10.8054 20.8867 10.3736 19.85 10.375 18.7472C10.375 17.7215 10.7476 17.375 11.4255 16H4.776C2.50175 16 0.651001 14.1479 0.651001 11.875C0.651001 9.60074 2.50175 7.74999 4.776 7.74999H11.4255C10.7463 6.37499 10.375 6.02436 10.375 4.99861C10.3764 3.89586 10.804 2.86186 11.585 2.08224C13.1415 0.525739 15.8585 0.524364 17.4164 2.08361L27.2078 11.875L17.4164 21.6664C16.6381 22.446 15.6014 22.875 14.5 22.875ZM4.776 10.5C4.017 10.5 3.401 11.1174 3.401 11.875C3.401 12.6326 4.017 13.25 4.776 13.25H18.0558L13.5279 17.7779C13.268 18.0377 13.125 18.3815 13.125 18.7486C13.125 19.1185 13.268 19.4622 13.5279 19.7221C14.049 20.2419 14.951 20.2419 15.4721 19.7221L23.3193 11.875L15.4721 4.02786C14.951 3.50811 14.049 3.50811 13.5279 4.02786C13.268 4.28774 13.125 4.63149 13.125 4.99861C13.125 5.36711 13.268 5.71224 13.5279 5.97211L18.0558 10.5H4.776Z" fill="#FBC085"/>
</svg>
