<svg width="24" height="24" viewBox="0 0 24 24" fill="none" xmlns="http://www.w3.org/2000/svg">
<path d="M8.36815 7.05929C8.36815 3.80271 5.17273 1.7185 5.0365 1.6356C4.83168 1.50324 4.59013 1.4325 4.34292 1.4325C4.09571 1.4325 3.85415 1.50324 3.64934 1.6356C3.5131 1.73034 0.317688 3.80271 0.317688 7.05929C0.317688 8.08002 0.741773 9.05895 1.49665 9.78072C2.25153 10.5025 3.27536 10.908 4.34292 10.908C5.41047 10.908 6.43431 10.5025 7.18918 9.78072C7.94406 9.05895 8.36815 8.08002 8.36815 7.05929ZM4.34292 8.53955C3.93232 8.53955 3.53854 8.38359 3.2482 8.10599C2.95786 7.82839 2.79475 7.45188 2.79475 7.05929C2.89667 5.93651 3.45198 4.89584 4.34292 4.15797C5.23917 4.89185 5.79566 5.93474 5.89108 7.05929C5.89108 7.45188 5.72797 7.82839 5.43764 8.10599C5.1473 8.38359 4.75352 8.53955 4.34292 8.53955ZM11.8484 9.92508C11.6436 9.79271 11.4021 9.72197 11.1548 9.72197C10.9076 9.72197 10.6661 9.79271 10.4613 9.92508C10.2507 10.0672 5.27182 13.3593 5.27182 18.3093C5.27182 19.8011 5.89163 21.2319 6.99492 22.2868C8.0982 23.3417 9.59457 23.9343 11.1548 23.9343C12.7151 23.9343 14.2115 23.3417 15.3148 22.2868C16.4181 21.2319 17.0379 19.8011 17.0379 18.3093C17.0379 13.2764 12.0837 10.0553 11.8484 9.92508ZM11.1548 21.5659C10.7076 21.5659 10.2647 21.4816 9.85144 21.318C9.43821 21.1543 9.06274 20.9144 8.74646 20.612C8.43019 20.3096 8.17931 19.9506 8.00814 19.5555C7.83698 19.1604 7.74888 18.7369 7.74888 18.3093C7.74888 15.5738 9.99062 13.3711 11.1672 12.3882C12.3315 13.3238 14.5608 15.5027 14.5608 18.3093C14.5608 18.7369 14.4727 19.1604 14.3015 19.5555C14.1304 19.9506 13.8795 20.3096 13.5632 20.612C13.247 20.9144 12.8715 21.1543 12.4583 21.318C12.045 21.4816 11.6021 21.5659 11.1548 21.5659ZM19.5892 0.451392C19.3844 0.319026 19.1429 0.248291 18.8957 0.248291C18.6485 0.248291 18.4069 0.319026 18.2021 0.451392C18.0287 0.569813 13.9415 3.26981 13.9415 7.35534C13.9415 8.61163 14.4635 9.81646 15.3926 10.7048C16.3217 11.5931 17.5818 12.0922 18.8957 12.0922C20.2096 12.0922 21.4697 11.5931 22.3988 10.7048C23.3278 9.81646 23.8498 8.61163 23.8498 7.35534C23.8498 3.22244 19.7626 0.557971 19.5892 0.451392ZM18.8957 9.72376C18.2387 9.72376 17.6087 9.47423 17.1441 9.03006C16.6796 8.5859 16.4186 7.98348 16.4186 7.35534C16.5035 6.50024 16.7664 5.67001 17.1918 4.91348C17.6171 4.15694 18.1965 3.48939 18.8957 2.95008C19.5975 3.48709 20.1786 4.15408 20.6043 4.91106C21.0299 5.66805 21.2913 6.49942 21.3727 7.35534C21.3727 7.98348 21.1118 8.5859 20.6472 9.03006C20.1827 9.47423 19.5526 9.72376 18.8957 9.72376Z" fill="#FBC085"/>
</svg>
