<svg width="18" height="22" viewBox="0 0 18 22" fill="none" xmlns="http://www.w3.org/2000/svg">
<path d="M7.5 14.28V4.5C7.5 4.23478 7.39464 3.98043 7.2071 3.79289C7.01957 3.60536 6.76521 3.5 6.5 3.5C6.23478 3.5 5.98043 3.60536 5.79289 3.79289C5.60535 3.98043 5.5 4.23478 5.5 4.5V14.28C5.19772 14.4545 4.94638 14.7051 4.77095 15.0068C4.59551 15.3086 4.5021 15.651 4.5 16C4.5 16.5304 4.71071 17.0391 5.08578 17.4142C5.46086 17.7893 5.96956 18 6.5 18C7.03043 18 7.53914 17.7893 7.91421 17.4142C8.28928 17.0391 8.5 16.5304 8.5 16C8.49789 15.651 8.40448 15.3086 8.22905 15.0068C8.05362 14.7051 7.80227 14.4545 7.5 14.28ZM16.5 1.5H16V1C16 0.734784 15.8946 0.48043 15.7071 0.292893C15.5196 0.105357 15.2652 0 15 0C14.7348 0 14.4804 0.105357 14.2929 0.292893C14.1054 0.48043 14 0.734784 14 1V1.5H13.5C13.2348 1.5 12.9804 1.60536 12.7929 1.79289C12.6054 1.98043 12.5 2.23478 12.5 2.5C12.5 2.76522 12.6054 3.01957 12.7929 3.20711C12.9804 3.39464 13.2348 3.5 13.5 3.5H14V4C14 4.26522 14.1054 4.51957 14.2929 4.70711C14.4804 4.89464 14.7348 5 15 5C15.2652 5 15.5196 4.89464 15.7071 4.70711C15.8946 4.51957 16 4.26522 16 4V3.5H16.5C16.7652 3.5 17.0196 3.39464 17.2071 3.20711C17.3946 3.01957 17.5 2.76522 17.5 2.5C17.5 2.23478 17.3946 1.98043 17.2071 1.79289C17.0196 1.60536 16.7652 1.5 16.5 1.5ZM11 4.5C11 3.30653 10.5259 2.16193 9.68198 1.31802C8.83806 0.474106 7.69347 1.19209e-07 6.5 1.19209e-07C5.30652 1.19209e-07 4.16193 0.474106 3.31802 1.31802C2.4741 2.16193 2 3.30653 2 4.5V12C1.30884 12.7832 0.834125 13.7333 0.622809 14.7562C0.411494 15.7792 0.4709 16.8396 0.795152 17.8326C1.1194 18.8255 1.69727 19.7166 2.47158 20.4177C3.24589 21.1188 4.18982 21.6056 5.21 21.83C5.63052 21.926 6.059 21.9829 6.49 22C7.65147 22.0074 8.79012 21.6774 9.76774 21.0503C10.7454 20.4231 11.5199 19.5257 11.9974 18.4669C12.475 17.4081 12.6349 16.2334 12.4578 15.0855C12.2808 13.9376 11.7744 12.8657 11 12V4.5ZM9 19.11C8.4733 19.5382 7.84628 19.8254 7.17797 19.9444C6.50967 20.0634 5.82206 20.0104 5.1799 19.7904C4.53774 19.5703 3.96214 19.1905 3.5073 18.6865C3.05246 18.1826 2.73335 17.5713 2.58 16.91C2.4255 16.2415 2.44554 15.5446 2.63818 14.8861C2.83081 14.2276 3.18958 13.6298 3.68 13.15C3.77448 13.0574 3.84966 12.9469 3.90115 12.8251C3.95265 12.7032 3.97945 12.5723 3.98 12.44V4.5C3.98 3.83696 4.24339 3.20107 4.71223 2.73223C5.18107 2.26339 5.81696 2 6.48 2C7.14304 2 7.77892 2.26339 8.24776 2.73223C8.7166 3.20107 8.98 3.83696 8.98 4.5V12.44C8.98055 12.5723 9.00735 12.7032 9.05884 12.8251C9.11034 12.9469 9.18551 13.0574 9.28 13.15C9.68875 13.5449 10.0087 14.0223 10.2184 14.5505C10.4282 15.0787 10.523 15.6456 10.4965 16.2133C10.47 16.781 10.3228 17.3366 10.0648 17.843C9.80673 18.3493 9.44375 18.7949 9 19.15V19.11Z" fill="#CB7130"/>
</svg>
