<svg width="23" height="32" viewBox="0 0 23 32" fill="none" xmlns="http://www.w3.org/2000/svg">
<path d="M13.1189 15.9999L21.9189 7.84043C22.0823 7.68883 22.1976 7.48903 22.2496 7.26751C22.3016 7.04599 22.2878 6.81322 22.2101 6.60005C22.1324 6.38689 21.9944 6.20339 21.8144 6.07389C21.6344 5.94439 21.421 5.87501 21.2023 5.87494H17.9666V0.249939H15.8095V8.12494H18.3657L11.4953 14.4948L4.62492 8.12494H7.18109V0.249939H5.02398V5.87494H1.78832C1.56966 5.87496 1.35616 5.94431 1.17615 6.0738C0.996136 6.20328 0.858106 6.38677 0.78036 6.59995C0.702615 6.81313 0.688826 7.04592 0.740824 7.26746C0.792821 7.489 0.908148 7.68882 1.07151 7.84043L9.87155 15.9999L1.0714 24.1594C0.908033 24.3111 0.792704 24.5109 0.74071 24.7324C0.688715 24.954 0.702512 25.1868 0.780271 25.4C0.85803 25.6132 0.996077 25.7967 1.17611 25.9261C1.35614 26.0556 1.56965 26.1249 1.78832 26.1249H5.02398V31.7499H7.18109V23.8749H4.62492L11.4953 17.5051L18.3657 23.8749H15.8095V31.7499H17.9666V26.1249H21.2023C21.421 26.1249 21.6344 26.0555 21.8144 25.926C21.9944 25.7965 22.1324 25.613 22.2102 25.3999C22.2879 25.1867 22.3017 24.9539 22.2497 24.7324C22.1977 24.5109 22.0824 24.3111 21.919 24.1594L13.1189 15.9999Z" fill="#FBC085"/>
</svg>
