<svg width="29" height="28" viewBox="0 0 29 28" fill="none" xmlns="http://www.w3.org/2000/svg">
<path d="M2.27163 9.51206C2.55605 9.51206 2.83409 9.42408 3.07058 9.25926C3.30707 9.09444 3.49139 8.86017 3.60024 8.58608C3.70908 8.31199 3.73756 8.01039 3.68207 7.71942C3.62658 7.42845 3.48962 7.16117 3.2885 6.9514C3.08738 6.74162 2.83114 6.59875 2.55218 6.54088C2.27323 6.483 1.98408 6.5127 1.7213 6.62624C1.45853 6.73977 1.23393 6.93203 1.07592 7.1787C0.917899 7.42537 0.833557 7.71538 0.833557 8.01205C0.833557 8.40988 0.985068 8.79141 1.25476 9.07271C1.52445 9.35402 1.89023 9.51206 2.27163 9.51206ZM8.02392 9.51206H18.0904C19.2346 9.51206 20.332 9.03795 21.141 8.19404C21.9501 7.35012 22.4047 6.20553 22.4047 5.01205C22.4047 3.81858 21.9501 2.67399 21.141 1.83007C20.332 0.98616 19.2346 0.512054 18.0904 0.512054C17.3339 0.515319 16.591 0.72197 15.9333 1.11205C15.7685 1.21005 15.624 1.34108 15.5079 1.4976C15.3919 1.65412 15.3067 1.83304 15.2573 2.02405C15.2078 2.21506 15.1951 2.41439 15.2198 2.61056C15.2445 2.80672 15.3062 2.99585 15.4012 3.16705C15.4964 3.33768 15.6229 3.48705 15.7735 3.60658C15.9241 3.72612 16.0958 3.81347 16.2789 3.86364C16.4619 3.9138 16.6526 3.9258 16.8401 3.89893C17.0276 3.87206 17.2081 3.80685 17.3714 3.70705C17.5926 3.58289 17.8392 3.51601 18.0904 3.51205C18.4718 3.51205 18.8376 3.67009 19.1073 3.95139C19.377 4.2327 19.5285 4.61423 19.5285 5.01205C19.5285 5.40988 19.377 5.79141 19.1073 6.07271C18.8376 6.35402 18.4718 6.51205 18.0904 6.51205H8.02392C7.64252 6.51205 7.27674 6.67009 7.00705 6.9514C6.73736 7.2327 6.58585 7.61423 6.58585 8.01205C6.58585 8.40988 6.73736 8.79141 7.00705 9.07271C7.27674 9.35402 7.64252 9.51206 8.02392 9.51206ZM2.27163 15.5121H12.3381C12.7195 15.5121 13.0853 15.354 13.355 15.0727C13.6247 14.7914 13.7762 14.4099 13.7762 14.0121C13.7762 13.6142 13.6247 13.2327 13.355 12.9514C13.0853 12.6701 12.7195 12.5121 12.3381 12.5121H2.27163C1.89023 12.5121 1.52445 12.6701 1.25476 12.9514C0.985068 13.2327 0.833557 13.6142 0.833557 14.0121C0.833557 14.4099 0.985068 14.7914 1.25476 15.0727C1.52445 15.354 1.89023 15.5121 2.27163 15.5121ZM26.7189 9.51206C27.0033 9.51206 27.2813 9.42408 27.5178 9.25926C27.7543 9.09444 27.9386 8.86017 28.0475 8.58608C28.1563 8.31199 28.1848 8.01039 28.1293 7.71942C28.0738 7.42845 27.9369 7.16117 27.7357 6.9514C27.5346 6.74162 27.2784 6.59875 26.9994 6.54088C26.7205 6.483 26.4313 6.5127 26.1685 6.62624C25.9058 6.73977 25.6812 6.93203 25.5232 7.1787C25.3651 7.42537 25.2808 7.71538 25.2808 8.01205C25.2808 8.40988 25.4323 8.79141 25.702 9.07271C25.9717 9.35402 26.3375 9.51206 26.7189 9.51206ZM23.8427 12.5121H18.0904C17.709 12.5121 17.3433 12.6701 17.0736 12.9514C16.8039 13.2327 16.6524 13.6142 16.6524 14.0121C16.6524 14.4099 16.8039 14.7914 17.0736 15.0727C17.3433 15.354 17.709 15.5121 18.0904 15.5121H23.8427C24.2241 15.5121 24.5899 15.6701 24.8596 15.9514C25.1293 16.2327 25.2808 16.6142 25.2808 17.0121C25.2808 17.4099 25.1293 17.7914 24.8596 18.0727C24.5899 18.354 24.2241 18.5121 23.8427 18.5121C23.4613 18.5121 23.0955 18.6701 22.8259 18.9514C22.5562 19.2327 22.4047 19.6142 22.4047 20.0121C22.4047 20.4099 22.5562 20.7914 22.8259 21.0727C23.0955 21.354 23.4613 21.5121 23.8427 21.5121C24.9869 21.5121 26.0843 21.038 26.8933 20.194C27.7024 19.3501 28.1569 18.2055 28.1569 17.0121C28.1569 15.8186 27.7024 14.674 26.8933 13.8301C26.0843 12.9862 24.9869 12.5121 23.8427 12.5121ZM15.2143 18.5121H9.462C9.0806 18.5121 8.71482 18.6701 8.44512 18.9514C8.17543 19.2327 8.02392 19.6142 8.02392 20.0121C8.02392 20.4099 8.17543 20.7914 8.44512 21.0727C8.71482 21.354 9.0806 21.5121 9.462 21.5121H15.2143C15.5957 21.5121 15.9615 21.6701 16.2312 21.9514C16.5008 22.2327 16.6524 22.6142 16.6524 23.0121C16.6524 23.4099 16.5008 23.7914 16.2312 24.0727C15.9615 24.354 15.5957 24.5121 15.2143 24.5121C14.9631 24.5081 14.7165 24.4412 14.4953 24.3171C14.3316 24.2085 14.1485 24.1357 13.9572 24.1028C13.7658 24.07 13.57 24.0779 13.3816 24.126C13.1932 24.1741 13.0161 24.2615 12.861 24.3829C12.7058 24.5043 12.5758 24.6571 12.4787 24.8323C12.3817 25.0074 12.3196 25.2012 12.2962 25.4021C12.2728 25.6029 12.2886 25.8066 12.3426 26.0009C12.3967 26.1952 12.4878 26.376 12.6106 26.5326C12.7334 26.6892 12.8853 26.8183 13.0572 26.9121C13.7148 27.3021 14.4578 27.5088 15.2143 27.5121C16.3585 27.5121 17.4558 27.038 18.2649 26.194C19.074 25.3501 19.5285 24.2055 19.5285 23.0121C19.5285 21.8186 19.074 20.674 18.2649 19.8301C17.4558 18.9862 16.3585 18.5121 15.2143 18.5121ZM3.7097 18.5121H2.27163C1.89023 18.5121 1.52445 18.6701 1.25476 18.9514C0.985068 19.2327 0.833557 19.6142 0.833557 20.0121C0.833557 20.4099 0.985068 20.7914 1.25476 21.0727C1.52445 21.354 1.89023 21.5121 2.27163 21.5121H3.7097C4.0911 21.5121 4.45688 21.354 4.72657 21.0727C4.99626 20.7914 5.14778 20.4099 5.14778 20.0121C5.14778 19.6142 4.99626 19.2327 4.72657 18.9514C4.45688 18.6701 4.0911 18.5121 3.7097 18.5121Z" fill="#FBC085"/>
</svg>
