<svg width="73" height="54" viewBox="0 0 73 54" fill="none" xmlns="http://www.w3.org/2000/svg">
<path d="M47.9947 5.76759C48.2632 5.89378 48.5156 6.03608 48.7707 6.16495C49.593 6.61565 50.3793 7.12909 51.1226 7.70071C54.0138 9.92522 56.1593 12.9772 57.2737 16.4508C57.3673 16.7866 57.5459 17.0925 57.7924 17.339C58.0389 17.5855 58.3448 17.7641 58.6806 17.8576C64.7297 19.1706 69.0174 24.7712 68.2415 31.0136C67.5031 36.9445 62.3347 41.3263 56.428 41.4041C55.1446 41.4229 54.4949 42.419 54.4841 43.4178H51.6113C51.6113 42.411 50.9642 41.4041 49.6674 41.4041H25.6994C24.4053 41.4041 23.7556 42.411 23.7556 43.4178H20.6196C20.6196 42.419 19.9645 41.4176 18.6757 41.4041C12.0978 41.3316 6.22859 36.9472 4.48878 30.5572C3.61535 27.2859 3.89991 23.8132 5.29425 20.7278C5.87409 19.4235 6.63812 18.2092 7.56298 17.122C8.63851 15.8576 9.92365 14.7877 11.3621 13.9592C15.0082 11.8569 19.2933 11.5186 23.2911 12.751C24.1878 13.0195 25.0711 12.5523 25.5652 11.8274C29.4958 6.04413 36.686 2.92966 43.5942 4.28016C44.8693 4.53044 46.1134 4.91844 47.3047 5.43735C47.5276 5.55011 47.7692 5.65483 47.9947 5.76759ZM51.5119 37.844C54.1029 37.844 54.1082 33.8166 51.5119 33.8166H21.605C19.0114 33.8166 19.0087 37.844 21.605 37.844H51.5119V37.844Z" fill="#DCDDDD"/>
<path d="M59.2148 15.9165C62.5988 16.5949 65.6091 18.5085 67.6596 21.2846C69.7101 24.0607 70.6541 27.5005 70.3076 30.9344C69.9612 34.3682 68.3492 37.5502 65.7855 39.8608C63.2218 42.1713 59.8899 43.4451 56.4386 43.4339H54.5082C54.5082 42.4351 55.1687 41.439 56.4521 41.4203C62.3588 41.3424 67.5165 36.9606 68.2656 31.0297C69.0415 24.7793 64.7537 19.1786 58.7047 17.8738C58.3689 17.7802 58.063 17.6016 57.8165 17.3551C57.57 17.1086 57.3914 16.8027 57.2978 16.4669C56.1834 12.9933 54.0379 9.94134 51.1467 7.71683C51.2568 6.9409 51.3293 6.15423 51.3669 5.36218C55.1081 7.8843 57.8766 11.6076 59.2148 15.9165V15.9165Z" fill="#231815"/>
<path d="M70.333 29.5315C70.3327 26.3284 69.226 23.2237 67.2 20.7428C65.174 18.2618 62.3533 16.5569 59.2149 15.9164C57.8737 11.598 55.0959 7.86812 51.3428 5.34597C51.3589 5.05064 51.3696 4.75261 51.3723 4.45459V4.43311C51.3723 4.39552 51.3723 4.35794 51.3723 4.32035V4.30155C51.3723 4.25591 51.3723 4.21027 51.3723 4.16462C51.3723 3.76189 51.3481 3.35916 51.3267 2.96448C55.6433 5.56061 58.9622 9.53201 60.7506 14.241C60.4204 14.147 60.0901 14.0584 59.7492 13.9859L61.156 15.3901C61.0325 15.0035 60.8876 14.6196 60.7506 14.241C68.1153 16.3567 73.1736 23.6784 72.2232 31.3975C71.7331 35.2512 69.8647 38.7973 66.9632 41.3804C64.0617 43.9636 60.3232 45.4092 56.4387 45.4502C55.1285 45.469 54.4814 44.4514 54.4948 43.4365H56.4387C58.2642 43.4365 60.0719 43.0768 61.7583 42.3778C63.4447 41.6789 64.9769 40.6545 66.2673 39.3632C67.5576 38.0718 68.5808 36.5389 69.2784 34.8519C69.9761 33.1649 70.3344 31.357 70.333 29.5315V29.5315Z" fill="#231815"/>
<path d="M60.7505 14.2304C60.8955 14.609 61.019 14.9929 61.1559 15.3795L59.749 13.9753C60.09 14.0478 60.4149 14.1364 60.7505 14.2304Z" fill="#231815"/>
<path d="M57.3677 49.0077C59.964 49.0077 59.9613 53.035 57.3677 53.035H30.4651C27.8688 53.035 27.8742 49.0077 30.4651 49.0077H57.3677Z" fill="#231815"/>
<path d="M51.5119 33.8168C54.1082 33.8168 54.1028 37.8441 51.5119 37.8441H21.6049C19.0086 37.8441 19.0113 33.8168 21.6049 33.8168H51.5119Z" fill="#231815"/>
<path d="M49.6753 41.4122C50.9721 41.4122 51.6218 42.4191 51.6192 43.4259H23.7554C23.7554 42.4191 24.4051 41.4122 25.6992 41.4122H49.6753Z" fill="#231815"/>
<path d="M23.7554 43.434H51.6111C51.6111 44.4408 50.964 45.4476 49.6672 45.4476H25.6992C24.4024 45.4396 23.7554 44.4327 23.7554 43.434Z" fill="#231815"/>
<path d="M51.1681 5.23064C51.2884 4.98865 51.3578 4.72458 51.3721 4.45471C51.3721 4.75273 51.3587 5.05076 51.3426 5.34609L51.1681 5.23064Z" fill="#231815"/>
<path d="M47.5733 3.36194C48.8334 3.86238 50.0382 4.49222 51.1683 5.24136C50.7307 6.10858 49.6648 6.42003 48.7707 6.1757C48.5023 6.03609 48.2579 5.90721 47.9948 5.77834C47.7856 5.59678 47.6191 5.37121 47.5072 5.11778C47.3954 4.86435 47.3409 4.58932 47.3477 4.31239C47.3435 3.98184 47.421 3.65537 47.5733 3.36194V3.36194Z" fill="#231815"/>
<path d="M51.1682 5.23065C50.0381 4.48151 48.8333 3.85166 47.5731 3.35122C48.4054 1.78325 51.2675 2.05174 51.3722 4.15669C51.3722 4.20233 51.3722 4.24797 51.3722 4.29362V4.31241C51.3722 4.35 51.3722 4.38759 51.3722 4.42518V4.44665C51.359 4.71926 51.2895 4.98618 51.1682 5.23065V5.23065Z" fill="#231815"/>
<path d="M48.7705 6.16505C49.6646 6.40938 50.7305 6.09793 51.1681 5.23071L51.3426 5.34616C51.305 6.1382 51.2326 6.92488 51.1225 7.70081C50.3791 7.12919 49.5928 6.61575 48.7705 6.16505Z" fill="#231815"/>
<path d="M51.3721 4.16464C51.2674 2.06237 48.4053 1.79388 47.573 3.35917L47.3045 3.25714C47.2631 2.51161 47.1833 1.76871 47.0656 1.03137C48.55 1.51617 49.9763 2.16358 51.3184 2.9618C51.3479 3.36454 51.3667 3.7619 51.3721 4.16464Z" fill="#231815"/>
<path d="M47.5732 3.36204C47.4226 3.65225 47.3452 3.97482 47.3476 4.30175C47.3476 3.95271 47.3315 3.60636 47.3127 3.26001L47.5732 3.36204Z" fill="#231815"/>
<path d="M47.3476 4.30164C47.3408 4.57857 47.3952 4.85359 47.5071 5.10702C47.619 5.36046 47.7855 5.58603 47.9947 5.76759C47.7692 5.65482 47.5383 5.55011 47.3047 5.44808C47.3289 5.06683 47.345 4.68558 47.3476 4.30164Z" fill="#231815"/>
<path d="M18.6756 10.0071C19.7836 10.0065 20.889 10.1162 21.9753 10.3347V10.3347C22.6009 10.4593 23.2186 10.6207 23.8252 10.8179C26.3066 7.08552 29.9809 4.30535 34.2473 2.93198C38.5137 1.55861 43.1198 1.6733 47.3126 3.2573C47.3314 3.60365 47.3448 3.95 47.3475 4.29904C47.3502 4.64807 47.3287 5.06423 47.3046 5.44548C46.1133 4.92657 44.8691 4.53857 43.594 4.28829C36.6858 2.94585 29.4957 6.05227 25.565 11.8355C25.071 12.5604 24.1877 13.0357 23.2909 12.7591C19.2931 11.5268 15.008 11.8651 11.3619 13.9673C9.92412 14.7934 8.63903 15.8605 7.56283 17.1221C7.14768 16.5569 6.76319 15.9699 6.41101 15.3635C7.97341 13.6706 9.87018 12.3205 11.9813 11.3985C14.0924 10.4765 16.3719 10.0027 18.6756 10.0071Z" fill="#231815"/>
<path d="M24.3623 8.87939C23.9193 8.74246 23.4736 8.62702 23.0199 8.52499C25.4874 5.35305 28.7736 2.91445 32.5244 1.47193C36.2753 0.0293985 40.3486 -0.36239 44.3057 0.338763C45.2477 0.506478 46.1771 0.738822 47.0872 1.03415C47.205 1.77149 47.2848 2.51439 47.3262 3.25992C43.1334 1.67593 38.5273 1.56124 34.2609 2.9346C29.9945 4.30797 26.3202 7.08814 23.8388 10.8206C23.2322 10.6233 22.6145 10.462 21.9889 10.3373V10.3373L22.1017 9.80032L24.3623 8.87939Z" fill="#231815"/>
<path d="M24.3622 8.87942L22.0881 9.80303C22.3862 9.36539 22.7003 8.9385 23.0252 8.52502C23.4735 8.62705 23.9192 8.74249 24.3622 8.87942Z" fill="#231815"/>
<path d="M23.0252 8.5303C22.7004 8.94377 22.3862 9.37067 22.0882 9.80831L21.9754 10.3453C19.1655 9.77946 16.2572 9.94582 13.5301 10.8284C10.803 11.7109 8.34875 13.28 6.40308 15.3848C6.04793 14.775 5.72355 14.1477 5.43115 13.5054C7.71293 11.2697 10.5195 9.64256 13.5935 8.77332C16.6675 7.90408 19.9105 7.82052 23.0252 8.5303V8.5303Z" fill="#231815"/>
<path d="M1.96759 26.7178C1.96653 28.9126 2.39792 31.0861 3.2371 33.1142C4.07629 35.1422 5.30683 36.9851 6.85842 38.5374C8.41001 40.0898 10.2523 41.3212 12.2799 42.1614C14.3075 43.0015 16.4808 43.4339 18.6757 43.4339H20.6195C20.6195 44.4488 19.9805 45.4637 18.6757 45.4476C13.9594 45.4161 9.4227 43.6356 5.94391 40.451C-0.306514 34.7 -1.79394 25.1096 2.27635 17.6859C2.4106 17.4388 2.54484 17.1972 2.69788 16.9583C2.84018 17.2267 2.98785 17.4737 3.14088 17.7261C3.38521 18.1289 3.64296 18.5316 3.90876 18.9075C2.63263 21.313 1.96609 23.9948 1.96759 26.7178V26.7178Z" fill="#231815"/>
<path d="M6.41113 15.374C6.76331 15.9804 7.1478 16.5675 7.56295 17.1326C6.63641 18.2187 5.87057 19.4321 5.28885 20.7357C4.80199 20.1487 4.34198 19.5365 3.90881 18.8993C4.58614 17.6204 5.42734 16.4353 6.41113 15.374Z" fill="#231815"/>
<path d="M5.43915 13.4921C5.73155 14.1344 6.05593 14.7616 6.41108 15.3715C5.42728 16.4328 4.58608 17.6179 3.90876 18.8967C3.64027 18.5101 3.38521 18.1181 3.14088 17.7154C2.98784 17.463 2.84018 17.2053 2.69788 16.9475C3.46956 15.6898 4.38995 14.5296 5.43915 13.4921V13.4921Z" fill="#231815"/>
<path d="M20.6195 43.4339H18.6757C15.7949 43.4333 12.9632 42.688 10.4554 41.2703C7.94757 39.8526 5.84887 37.8107 4.36294 35.3427C2.87701 32.8747 2.05434 30.0645 1.97476 27.1848C1.89518 24.3051 2.56141 21.4538 3.90877 18.9075C4.34372 19.5447 4.80373 20.1568 5.2888 20.7439C3.89446 23.8294 3.60989 27.302 4.48333 30.5733C6.22314 36.9634 12.0923 41.3478 18.6703 41.4203C19.9644 41.4256 20.6115 42.4271 20.6195 43.4339Z" fill="#231815"/>
</svg>
