<svg width="84" height="77" viewBox="0 0 84 77" fill="none" xmlns="http://www.w3.org/2000/svg">
<path d="M39.067 18.1271C35.2895 18.1273 31.5872 19.1833 28.3779 21.1758C25.1686 23.1684 22.58 26.0182 20.9044 29.4038C19.2287 32.7894 18.5326 36.5759 18.8945 40.336C19.2565 44.0962 20.6622 47.6804 22.953 50.6841C26.8545 53.6578 31.7022 55.1155 36.5968 54.7867C41.4913 54.4579 46.1005 52.365 49.5693 48.8962C53.0381 45.4275 55.131 40.8183 55.4598 35.9237C55.7886 31.0291 54.3309 26.1814 51.3572 22.2799C47.8293 19.5805 43.5092 18.1207 39.067 18.1271V18.1271Z" fill="#FAD183"/>
<path d="M43.0274 21.8952C39.2498 21.8954 35.5475 22.9513 32.3382 24.9439C29.1289 26.9365 26.5404 29.7863 24.8647 33.1719C23.189 36.5574 22.4929 40.3439 22.8549 44.1041C23.2169 47.8643 24.6225 51.4484 26.9133 54.4521C30.8148 57.4258 35.6625 58.8835 40.5571 58.5548C45.4517 58.226 50.0609 56.1331 53.5297 52.6643C56.9984 49.1955 59.0913 44.5863 59.4201 39.6917C59.7489 34.7972 58.2912 29.9495 55.3175 26.048C51.7896 23.3485 47.4695 21.8888 43.0274 21.8952V21.8952Z" fill="#F7AD1E"/>
<path d="M39.0123 1.6283V12.9089" stroke="#182025" stroke-width="3" stroke-linecap="round" stroke-linejoin="round"/>
<path d="M39.0123 1.6283V12.9089" stroke="black" stroke-opacity="0.2" stroke-width="3" stroke-linecap="round" stroke-linejoin="round"/>
<path d="M13.0554 12.3794L21.0302 20.3561" stroke="#182025" stroke-width="3" stroke-linecap="round" stroke-linejoin="round"/>
<path d="M13.0554 12.3794L21.0302 20.3561" stroke="black" stroke-opacity="0.2" stroke-width="3" stroke-linecap="round" stroke-linejoin="round"/>
<path d="M2.30249 38.3381H13.5831" stroke="#182025" stroke-width="3" stroke-linecap="round" stroke-linejoin="round"/>
<path d="M2.30249 38.3381H13.5831" stroke="black" stroke-opacity="0.2" stroke-width="3" stroke-linecap="round" stroke-linejoin="round"/>
<path d="M64.4414 38.3381H75.7201" stroke="#182025" stroke-width="3" stroke-linecap="round" stroke-linejoin="round"/>
<path d="M64.4414 38.3381H75.7201" stroke="black" stroke-opacity="0.2" stroke-width="3" stroke-linecap="round" stroke-linejoin="round"/>
<path d="M56.9924 20.3561L64.9692 12.3794" stroke="#182025" stroke-width="3" stroke-linecap="round" stroke-linejoin="round"/>
<path d="M56.9924 20.3561L64.9692 12.3794" stroke="black" stroke-opacity="0.2" stroke-width="3" stroke-linecap="round" stroke-linejoin="round"/>
<path d="M19.1087 35.6843C18.9942 36.5642 18.9367 37.4507 18.9366 38.3381C18.9355 43.1731 20.663 47.8492 23.8072 51.5223C26.9514 55.1954 31.3052 57.6233 36.0825 58.3679C40.8598 59.1125 45.746 58.1246 49.8588 55.5825C53.9717 53.0405 57.0402 49.1119 58.5105 44.5058C59.9808 39.8998 59.756 34.9199 57.8766 30.465C55.9972 26.0102 52.5872 22.3741 48.262 20.213C43.9368 18.052 38.9815 17.5084 34.2907 18.6804C29.5999 19.8525 25.4826 22.6629 22.6822 26.6043" stroke="#182025" stroke-width="3" stroke-linecap="round" stroke-linejoin="round"/>
<path d="M19.1087 35.6843C18.9942 36.5642 18.9367 37.4507 18.9366 38.3381C18.9355 43.1731 20.663 47.8492 23.8072 51.5223C26.9514 55.1954 31.3052 57.6233 36.0825 58.3679C40.8598 59.1125 45.746 58.1246 49.8588 55.5825C53.9717 53.0405 57.0402 49.1119 58.5105 44.5058C59.9808 39.8998 59.756 34.9199 57.8766 30.465C55.9972 26.0102 52.5872 22.3741 48.262 20.213C43.9368 18.052 38.9815 17.5084 34.2907 18.6804C29.5999 19.8525 25.4826 22.6629 22.6822 26.6043" stroke="black" stroke-opacity="0.2" stroke-width="3" stroke-linecap="round" stroke-linejoin="round"/>
<path d="M20.382 30.8202C20.3495 30.8986 20.317 30.9751 20.2864 31.0535" stroke="#182025" stroke-width="3" stroke-linecap="round" stroke-linejoin="round"/>
<path d="M20.382 30.8202C20.3495 30.8986 20.317 30.9751 20.2864 31.0535" stroke="black" stroke-opacity="0.2" stroke-width="3" stroke-linecap="round" stroke-linejoin="round"/>
<path d="M69.4126 50.001C67.9199 49.9998 66.4392 50.2679 65.0418 50.7926C64.1003 45.8332 61.3419 41.4037 57.3065 38.371C53.2711 35.3383 48.2492 33.9207 43.2237 34.3956C38.1981 34.8706 33.5307 37.2039 30.1349 40.9389C26.7391 44.674 24.8594 49.5418 24.8637 54.5898C24.8637 55.1098 24.8835 55.6248 24.923 56.1346C23.6084 55.7431 22.225 55.6391 20.8667 55.8296C19.5083 56.0201 18.2069 56.5006 17.0507 57.2386C15.8946 57.9766 14.9108 58.9548 14.1661 60.1067C13.4214 61.2585 12.9333 62.5572 12.735 63.9144C12.5367 65.2716 12.6327 66.6556 13.0166 67.9724C13.4005 69.2892 14.0632 70.508 14.9599 71.546C15.8565 72.584 16.966 73.4169 18.213 73.9881C19.46 74.5594 20.8153 74.8556 22.187 74.8566H69.4126C72.7086 74.8566 75.8697 73.5473 78.2003 71.2166C80.531 68.8859 81.8403 65.7249 81.8403 62.4288C81.8403 59.1328 80.531 55.9717 78.2003 53.6411C75.8697 51.3104 72.7086 50.001 69.4126 50.001V50.001Z" fill="white"/>
<path d="M68.8654 54.6205C68.5726 53.0836 68.1016 51.586 67.4621 50.158C66.6359 50.2884 65.8249 50.5017 65.0415 50.7947C64.4527 47.7034 63.1498 44.7925 61.2367 42.2941C58.2326 40.0052 54.6486 38.6014 50.8891 38.2408C47.1297 37.8802 43.3442 38.5773 39.9598 40.2534C36.5754 41.9295 33.7266 44.518 31.7349 47.7268C29.7431 50.9356 28.6876 54.6371 28.6874 58.4139C28.6874 58.9339 28.7084 59.4502 28.7466 59.9606C26.9323 59.4188 24.9978 59.428 23.1887 59.987C21.3795 60.546 19.7771 61.6297 18.5847 63.1007C17.3923 64.5716 16.6636 66.3636 16.491 68.2493C16.3184 70.1349 16.7096 72.0294 17.6152 73.6924C19.017 74.4585 20.5892 74.8589 22.1867 74.8568H69.4123C71.6385 74.8567 73.8239 74.2587 75.7399 73.1251C77.656 71.9915 79.2324 70.3641 80.3043 68.4129C81.3762 66.4617 81.9044 64.2584 81.8335 62.0333C81.7626 59.8081 81.0953 57.6429 79.9013 55.7639C78.2764 54.7308 76.4337 54.0894 74.5185 53.8904C72.6033 53.6913 70.6681 53.9399 68.8654 54.6167V54.6205Z" fill="#B6C4CF"/>
<path d="M26.2976 47.0968C26.2842 47.1331 26.2689 47.1675 26.2556 47.2039C26.2422 47.2402 26.2269 47.2727 26.2135 47.309" stroke="#182025" stroke-width="3" stroke-linecap="round" stroke-linejoin="round"/>
<path d="M26.2976 47.0968C26.2842 47.1331 26.2689 47.1675 26.2556 47.2039C26.2422 47.2402 26.2269 47.2727 26.2135 47.309" stroke="black" stroke-opacity="0.2" stroke-width="3" stroke-linecap="round" stroke-linejoin="round"/>
<path d="M81.8154 63.0808C82.1711 56.7579 77.4351 51.0048 71.162 50.1253C69.0986 49.835 66.9955 50.065 65.0437 50.7945C63.8104 44.2785 59.3078 38.7663 53.3195 35.9825C44.9393 31.8373 34.0411 35.0877 28.6589 42.7814" stroke="#182025" stroke-width="3" stroke-miterlimit="10" stroke-linecap="round"/>
<path d="M81.8154 63.0808C82.1711 56.7579 77.4351 51.0048 71.162 50.1253C69.0986 49.835 66.9955 50.065 65.0437 50.7945C63.8104 44.2785 59.3078 38.7663 53.3195 35.9825C44.9393 31.8373 34.0411 35.0877 28.6589 42.7814" stroke="black" stroke-opacity="0.2" stroke-width="3" stroke-miterlimit="10" stroke-linecap="round"/>
<path d="M77.9493 71.461C79.0251 70.4403 79.9085 69.2344 80.5573 67.9009" stroke="#182025" stroke-width="3" stroke-miterlimit="10" stroke-linecap="round"/>
<path d="M77.9493 71.461C79.0251 70.4403 79.9085 69.2344 80.5573 67.9009" stroke="black" stroke-opacity="0.2" stroke-width="3" stroke-miterlimit="10" stroke-linecap="round"/>
<path d="M25.0224 52.0469C24.8529 53.4034 24.819 54.7734 24.921 56.1366C22.7453 55.5065 20.4174 55.6618 18.3446 56.5751C16.2718 57.4885 14.5863 59.1017 13.5831 61.1325C12.9241 62.4293 12.5807 63.8633 12.5807 65.3178C12.5807 66.7724 12.9241 68.2064 13.5831 69.5031C14.1567 70.4591 14.7303 71.6063 15.6862 72.3711C16.4054 72.9462 17.1731 73.458 17.9806 73.9007C19.1014 74.3076 20.252 74.6272 21.4221 74.8566C37.8651 75.0478 54.308 75.0478 70.7509 74.8566C71.7069 74.8566 72.8541 74.283 73.7947 74.0613" stroke="#182025" stroke-width="3" stroke-miterlimit="10" stroke-linecap="round"/>
<path d="M25.0224 52.0469C24.8529 53.4034 24.819 54.7734 24.921 56.1366C22.7453 55.5065 20.4174 55.6618 18.3446 56.5751C16.2718 57.4885 14.5863 59.1017 13.5831 61.1325C12.9241 62.4293 12.5807 63.8633 12.5807 65.3178C12.5807 66.7724 12.9241 68.2064 13.5831 69.5031C14.1567 70.4591 14.7303 71.6063 15.6862 72.3711C16.4054 72.9462 17.1731 73.458 17.9806 73.9007C19.1014 74.3076 20.252 74.6272 21.4221 74.8566C37.8651 75.0478 54.308 75.0478 70.7509 74.8566C71.7069 74.8566 72.8541 74.283 73.7947 74.0613" stroke="black" stroke-opacity="0.2" stroke-width="3" stroke-miterlimit="10" stroke-linecap="round"/>
</svg>
