<svg width="69" height="60" viewBox="0 0 69 60" fill="none" xmlns="http://www.w3.org/2000/svg">
<path d="M2.43298 30.1992H66.635" stroke="#CAD4DB" stroke-width="3" stroke-linecap="round" stroke-linejoin="round"/>
<path d="M61.8876 37.7347L54.3522 30.1993L61.8876 22.6638" stroke="#CAD4DB" stroke-width="3" stroke-linecap="round" stroke-linejoin="round"/>
<path d="M7.10498 37.7347L14.6404 30.1993L7.10498 22.6638" stroke="#CAD4DB" stroke-width="3" stroke-linecap="round" stroke-linejoin="round"/>
<path d="M20.2167 24.9244V35.4741" stroke="#CAD4DB" stroke-width="3" stroke-linecap="round" stroke-linejoin="round"/>
<path d="M48.8513 24.9244V35.4741" stroke="#CAD4DB" stroke-width="3" stroke-linecap="round" stroke-linejoin="round"/>
<path d="M18.4835 58L50.5845 2.39844" stroke="#CAD4DB" stroke-width="3" stroke-linecap="round" stroke-linejoin="round"/>
<path d="M54.7357 10.2789L44.4423 13.0368L41.6843 2.74341" stroke="#CAD4DB" stroke-width="3" stroke-linecap="round" stroke-linejoin="round"/>
<path d="M27.3452 57.7221L24.5872 47.4287L14.2938 50.1867" stroke="#CAD4DB" stroke-width="3" stroke-linecap="round" stroke-linejoin="round"/>
<path d="M22.8071 39.9618L31.9434 45.2366" stroke="#CAD4DB" stroke-width="3" stroke-linecap="round" stroke-linejoin="round"/>
<path d="M37.1245 15.1619L46.2608 20.4367" stroke="#CAD4DB" stroke-width="3" stroke-linecap="round" stroke-linejoin="round"/>
<path d="M27.8928 18.6952C24.6542 13.2864 21.64 7.7604 18.4835 2.40186" stroke="#CAD4DB" stroke-width="3" stroke-linecap="round" stroke-linejoin="round"/>
<path d="M30.5268 23.2466C30.4297 23.0791 30.4983 23.1997 30.3995 23.0339" stroke="#CAD4DB" stroke-width="3" stroke-linecap="round" stroke-linejoin="round"/>
<path d="M46.4802 50.9753C42.9067 44.7929 39.3902 38.572 35.8401 32.3761C34.8443 30.6447 33.8441 28.9143 32.8394 27.1851" stroke="#CAD4DB" stroke-width="3" stroke-linecap="round" stroke-linejoin="round"/>
<path d="M50.5845 57.9967C49.9527 56.9294 49.3241 55.8605 48.699 54.7899" stroke="#CAD4DB" stroke-width="3" stroke-linecap="round" stroke-linejoin="round"/>
<path d="M27.3836 2.74341L24.6257 13.0368L14.3306 10.2789" stroke="#CAD4DB" stroke-width="3" stroke-linecap="round" stroke-linejoin="round"/>
<path d="M54.7742 50.1867L44.4808 47.4287L41.7228 57.7221" stroke="#CAD4DB" stroke-width="3" stroke-linecap="round" stroke-linejoin="round"/>
<path d="M37.1245 45.2366L46.2608 39.9618" stroke="#CAD4DB" stroke-width="3" stroke-linecap="round" stroke-linejoin="round"/>
<path d="M23.6732 21.3028L32.8095 16.028" stroke="#CAD4DB" stroke-width="3" stroke-linecap="round" stroke-linejoin="round"/>
</svg>
