<svg width="69" height="78" viewBox="0 0 69 78" fill="none" xmlns="http://www.w3.org/2000/svg">
<path d="M59.1527 24.4722V24.4939C56.9075 24.494 54.7024 25.0811 52.7621 26.1956C50.8217 27.3101 49.2153 28.9121 48.1065 30.8384C46.9978 32.7647 46.4262 34.9465 46.4501 37.1617C46.474 39.3769 47.0924 41.5462 48.2424 43.4488C50.1705 44.5835 52.369 45.1936 54.6138 45.2173C56.8587 45.2409 59.0698 44.6772 61.0221 43.5834C62.9743 42.4897 64.5979 40.905 65.7276 38.9908C66.8573 37.0765 67.4526 34.9011 67.4531 32.686H67.4751V24.4722H59.1527Z" fill="#60C3E5"/>
<path d="M54.9614 18.8575V18.881C52.6524 18.8811 50.3847 19.5168 48.3892 20.7232C46.3937 21.9297 44.7417 23.6639 43.6014 25.7492C42.4611 27.8345 41.8734 30.1964 41.8979 32.5944C41.9224 34.9924 42.5584 37.3408 43.7411 39.4005C45.724 40.6288 47.9849 41.2893 50.2936 41.3149C52.6022 41.3405 54.8762 40.7302 56.8839 39.5462C58.8916 38.3622 60.5613 36.6467 61.7231 34.5745C62.8848 32.5022 63.4971 30.1472 63.4976 27.7493H63.5202V18.8575H54.9614Z" fill="#A1E7FF"/>
<path d="M22.4694 47.6624V47.6884C19.5177 47.6913 16.6223 48.4857 14.0928 49.9867C11.5633 51.4878 9.4949 53.6389 8.10873 56.2102C6.72257 58.7815 6.0708 61.6762 6.22312 64.5847C6.37543 67.4932 7.32611 70.3062 8.97348 72.7229C11.4229 74.3484 14.274 75.2864 17.222 75.4366C20.1699 75.5868 23.1038 74.9435 25.7099 73.5756C28.3159 72.2076 30.4961 70.1664 32.0172 67.6703C33.5384 65.1742 34.3432 62.317 34.3457 59.4044H34.3721V47.6624H22.4694Z" fill="#60C3E5"/>
<path d="M17.838 42.4387V42.4661C14.9761 42.4691 12.1689 43.3035 9.71635 44.8802C7.26385 46.4568 5.25838 48.7163 3.9144 51.4171C2.57042 54.1179 1.93848 57.1583 2.08616 60.2134C2.23384 63.2684 3.15559 66.223 4.75282 68.7614C7.12767 70.4688 9.89204 71.4541 12.7503 71.6118C15.6085 71.7696 18.4532 71.0939 20.9799 69.657C23.5066 68.2202 25.6205 66.0762 27.0953 63.4543C28.5701 60.8325 29.3505 57.8315 29.3529 54.7722H29.3785V42.4387H17.838Z" fill="#A1E7FF"/>
<path d="M30.3892 6.24384C28.8856 6.24499 27.4065 6.61906 26.0878 7.33166C24.7691 8.04425 23.6531 9.07251 22.8423 10.3219C22.0316 11.5713 21.5522 13.0017 21.4482 14.4817C21.3442 15.9616 21.619 17.4436 22.2472 18.7915C23.6132 19.4113 25.1152 19.6824 26.6151 19.5797C28.115 19.4771 29.5648 19.0041 30.831 18.2042C32.0972 17.4043 33.1394 16.3031 33.8616 15.002C34.5838 13.7008 34.9629 12.2414 34.9641 10.7579H34.9795V6.22864H30.3892V6.24384Z" fill="#60C3E5"/>
<path d="M26.6436 2.03191C25.0023 2.03327 23.3876 2.47303 21.948 3.31077C20.5085 4.1485 19.2902 5.35733 18.4052 6.82613C17.5202 8.29492 16.9969 9.97655 16.8833 11.7164C16.7698 13.4563 17.0697 15.1986 17.7555 16.7831C19.2466 17.5118 20.8863 17.8304 22.5237 17.7098C24.1611 17.5892 25.7437 17.0331 27.126 16.0927C28.5082 15.1523 29.6459 13.8578 30.4343 12.3281C31.2227 10.7984 31.6365 9.0827 31.6378 7.33866H31.6546V2.01404H26.6436V2.03191Z" fill="#A1E7FF"/>
<path d="M2.98363 53.3749C2.96383 53.4205 2.94842 53.4682 2.92862 53.516" stroke="#182025" stroke-width="3" stroke-linecap="round" stroke-linejoin="round"/>
<path d="M2.98363 53.3749C2.96383 53.4205 2.94842 53.4682 2.92862 53.516" stroke="black" stroke-opacity="0.2" stroke-width="3" stroke-linecap="round" stroke-linejoin="round"/>
<path d="M1.80634 58.8161C1.80634 59.0115 1.79313 59.2069 1.79313 59.4045C1.72135 61.5578 2.0892 63.7033 2.87479 65.7135C3.66038 67.7236 4.84768 69.5574 6.36607 71.1056C7.88445 72.6539 9.7029 73.885 11.7133 74.7258C13.7236 75.5666 15.8848 75.9999 18.0683 75.9999C20.2518 75.9999 22.413 75.5666 24.4234 74.7258C26.4338 73.885 28.2522 72.6539 29.7706 71.1056C31.289 69.5574 32.4763 67.7236 33.2619 65.7135C34.0475 63.7033 34.4153 61.5578 34.3435 59.4045H34.3699V43.3177H18.0683C15.764 43.3218 13.4869 43.8089 11.3878 44.747C9.28871 45.685 7.41566 47.0526 5.89274 48.7589" stroke="#182025" stroke-width="3" stroke-linecap="round" stroke-linejoin="round"/>
<path d="M1.80634 58.8161C1.80634 59.0115 1.79313 59.2069 1.79313 59.4045C1.72135 61.5578 2.0892 63.7033 2.87479 65.7135C3.66038 67.7236 4.84768 69.5574 6.36607 71.1056C7.88445 72.6539 9.7029 73.885 11.7133 74.7258C13.7236 75.5666 15.8848 75.9999 18.0683 75.9999C20.2518 75.9999 22.413 75.5666 24.4234 74.7258C26.4338 73.885 28.2522 72.6539 29.7706 71.1056C31.289 69.5574 32.4763 67.7236 33.2619 65.7135C34.0475 63.7033 34.4153 61.5578 34.3435 59.4045H34.3699V43.3177H18.0683C15.764 43.3218 13.4869 43.8089 11.3878 44.747C9.28871 45.685 7.41566 47.0526 5.89274 48.7589" stroke="black" stroke-opacity="0.2" stroke-width="3" stroke-linecap="round" stroke-linejoin="round"/>
<path d="M17.6898 7.39026C17.67 7.43585 17.6546 7.48362 17.6348 7.52922" stroke="#182025" stroke-width="3" stroke-linecap="round" stroke-linejoin="round"/>
<path d="M17.6898 7.39026C17.67 7.43585 17.6546 7.48362 17.6348 7.52922" stroke="black" stroke-opacity="0.2" stroke-width="3" stroke-linecap="round" stroke-linejoin="round"/>
<path d="M17.2827 12.8878C17.8104 14.9858 19.098 16.8207 20.9027 18.0463C22.7073 19.2719 24.9042 19.8034 27.0787 19.5405C29.2533 19.2776 31.2551 18.2386 32.7066 16.6194C34.158 15.0003 34.9587 12.9129 34.9575 10.7513H34.9729V1.88611H25.9881V1.90131C24.2863 1.89964 22.6196 2.37801 21.1843 3.28005" stroke="#182025" stroke-width="3" stroke-linecap="round" stroke-linejoin="round"/>
<path d="M17.2827 12.8878C17.8104 14.9858 19.098 16.8207 20.9027 18.0463C22.7073 19.2719 24.9042 19.8034 27.0787 19.5405C29.2533 19.2776 31.2551 18.2386 32.7066 16.6194C34.158 15.0003 34.9587 12.9129 34.9575 10.7513H34.9729V1.88611H25.9881V1.90131C24.2863 1.89964 22.6196 2.37801 21.1843 3.28005" stroke="black" stroke-opacity="0.2" stroke-width="3" stroke-linecap="round" stroke-linejoin="round"/>
<path d="M42.7122 27.2678C42.6902 27.3221 42.6704 27.3786 42.6462 27.435" stroke="#182025" stroke-width="3" stroke-linecap="round" stroke-linejoin="round"/>
<path d="M42.7122 27.2678C42.6902 27.3221 42.6704 27.3786 42.6462 27.435" stroke="black" stroke-opacity="0.2" stroke-width="3" stroke-linecap="round" stroke-linejoin="round"/>
<path d="M41.7263 32.7589C41.8775 36.0326 43.3222 39.1177 45.751 41.3529C48.1797 43.5882 51.3992 44.796 54.7195 44.7173C58.0399 44.6387 61.1969 43.2799 63.5141 40.9322C65.8313 38.5845 67.1244 35.4346 67.1162 32.1575H67.1382V19.6012H54.4124V19.6229C51.2647 19.6186 48.2284 20.772 45.8963 22.8581" stroke="#182025" stroke-width="3" stroke-linecap="round" stroke-linejoin="round"/>
<path d="M41.7263 32.7589C41.8775 36.0326 43.3222 39.1177 45.751 41.3529C48.1797 43.5882 51.3992 44.796 54.7195 44.7173C58.0399 44.6387 61.1969 43.2799 63.5141 40.9322C65.8313 38.5845 67.1244 35.4346 67.1162 32.1575H67.1382V19.6012H54.4124V19.6229C51.2647 19.6186 48.2284 20.772 45.8963 22.8581" stroke="black" stroke-opacity="0.2" stroke-width="3" stroke-linecap="round" stroke-linejoin="round"/>
</svg>
