<svg width="75" height="80" viewBox="0 0 75 80" fill="none" xmlns="http://www.w3.org/2000/svg">
<path d="M27.3494 49.5573H39.9659" stroke="#CFD1D7" stroke-width="3" stroke-linecap="round" stroke-linejoin="round"/>
<path d="M30.5035 55.0199L36.8118 44.0928" stroke="#CFD1D7" stroke-width="3" stroke-linecap="round" stroke-linejoin="round"/>
<path d="M36.8118 55.0199L30.5035 44.0928" stroke="#CFD1D7" stroke-width="3" stroke-linecap="round" stroke-linejoin="round"/>
<path d="M44.4803 61.5962H58.6739" stroke="#CFD1D7" stroke-width="3" stroke-linecap="round" stroke-linejoin="round"/>
<path d="M48.0287 67.7428L55.1255 55.4496" stroke="#CFD1D7" stroke-width="3" stroke-linecap="round" stroke-linejoin="round"/>
<path d="M55.1255 67.7428L48.0287 55.4496" stroke="#CFD1D7" stroke-width="3" stroke-linecap="round" stroke-linejoin="round"/>
<path d="M15.4996 69.6571H35.213" stroke="#CFD1D7" stroke-width="3" stroke-linecap="round" stroke-linejoin="round"/>
<path d="M20.428 78.1929L30.2847 61.1211" stroke="#CFD1D7" stroke-width="3" stroke-linecap="round" stroke-linejoin="round"/>
<path d="M30.2847 78.1929L20.428 61.1211" stroke="#CFD1D7" stroke-width="3" stroke-linecap="round" stroke-linejoin="round"/>
<path d="M55.0454 21.0192C54.7437 19.4351 54.2581 17.8916 53.5985 16.4201C52.7464 16.5535 51.9102 16.7735 51.1027 17.0765C50.4957 13.8893 49.1523 10.888 47.1798 8.31197C44.0822 5.95196 40.3868 4.50446 36.5104 4.13277C32.6341 3.76108 28.7309 4.47997 25.2413 6.20836C21.7518 7.93676 18.8146 10.6059 16.7611 13.9146C14.7077 17.2234 13.6196 21.0401 13.6198 24.9343C13.6198 25.4705 13.6415 26.0008 13.6809 26.5271C11.8098 25.9675 9.81465 25.9764 7.94861 26.5526C6.08257 27.1288 4.42976 28.2463 3.1999 29.7634C1.97005 31.2805 1.2186 33.1288 1.04089 35.0736C0.863193 37.0185 1.26726 38.9724 2.20181 40.6872C3.64791 41.4769 5.26957 41.8898 6.91724 41.8877H55.6092C57.9041 41.8871 60.1568 41.2702 62.1317 40.1014C64.1067 38.9326 65.7315 37.2548 66.8365 35.2434C67.9414 33.232 68.4858 30.9607 68.4129 28.667C68.34 26.3732 67.6524 24.1411 66.422 22.204C64.7469 21.1391 62.8473 20.478 60.873 20.2728C58.8987 20.0675 56.9038 20.3237 55.0454 21.0212V21.0192Z" fill="white"/>
<path d="M59.626 23.169C59.3243 21.5848 58.8387 20.0414 58.1791 18.5698C57.327 18.7033 56.4908 18.9233 55.6834 19.2263C55.0763 16.0391 53.733 13.0378 51.7604 10.4617C48.6629 8.10174 44.9675 6.65424 41.0911 6.28255C37.2147 5.91086 33.3116 6.62975 29.822 8.35815C26.3324 10.0865 23.3952 12.7557 21.3418 16.0644C19.2883 19.3732 18.2003 23.1899 18.2004 27.084C18.2004 27.6203 18.2221 28.1505 18.2615 28.6769C16.3904 28.1173 14.3953 28.1262 12.5292 28.7024C10.6632 29.2786 9.01038 30.3961 7.78053 31.9132C6.55068 33.4303 5.79922 35.2786 5.62152 37.2234C5.44382 39.1683 5.84788 41.1221 6.78244 42.837C8.22854 43.6267 9.8502 44.0396 11.4979 44.0375H60.1898C62.4848 44.0369 64.7374 43.42 66.7124 42.2512C68.6873 41.0823 70.3122 39.4046 71.4171 37.3932C72.522 35.3818 73.0664 33.1105 72.9935 30.8168C72.9206 28.523 72.233 26.2909 71.0026 24.3537C69.3275 23.2889 67.4279 22.6278 65.4536 22.4225C63.4794 22.2173 61.4844 22.4735 59.626 23.1709V23.169Z" fill="#B6C4CF"/>
<path d="M15.7362 15.4158C15.7224 15.4532 15.7066 15.4887 15.6928 15.5262C15.679 15.5636 15.6633 15.5971 15.6495 15.6346" stroke="#182025" stroke-width="3" stroke-linecap="round" stroke-linejoin="round"/>
<path d="M15.7362 15.4158C15.7224 15.4532 15.7066 15.4887 15.6928 15.5262C15.679 15.5636 15.6633 15.5971 15.6495 15.6346" stroke="black" stroke-opacity="0.2" stroke-width="3" stroke-linecap="round" stroke-linejoin="round"/>
<path d="M72.9779 31.8961C73.3446 25.3769 68.4616 19.4452 61.9936 18.5383C59.8662 18.2391 57.6978 18.4762 55.6853 19.2283C54.4138 12.51 49.7713 6.82664 43.5971 3.95638C34.9568 -0.317479 23.7201 3.03379 18.1708 10.9664" stroke="#182025" stroke-width="3" stroke-miterlimit="10" stroke-linecap="round"/>
<path d="M72.9779 31.8961C73.3446 25.3769 68.4616 19.4452 61.9936 18.5383C59.8662 18.2391 57.6978 18.4762 55.6853 19.2283C54.4138 12.51 49.7713 6.82664 43.5971 3.95638C34.9568 -0.317479 23.7201 3.03379 18.1708 10.9664" stroke="black" stroke-opacity="0.2" stroke-width="3" stroke-miterlimit="10" stroke-linecap="round"/>
<path d="M68.9918 40.5365C70.101 39.4841 71.0118 38.2407 71.6807 36.8658" stroke="#182025" stroke-width="3" stroke-miterlimit="10" stroke-linecap="round"/>
<path d="M68.9918 40.5365C70.101 39.4841 71.0118 38.2407 71.6807 36.8658" stroke="black" stroke-opacity="0.2" stroke-width="3" stroke-miterlimit="10" stroke-linecap="round"/>
<path d="M14.4213 20.5195C14.2466 21.9181 14.2116 23.3307 14.3169 24.7362C12.0736 24.0866 9.67334 24.2467 7.5362 25.1884C5.39906 26.1301 3.66121 27.7935 2.62684 29.8873C1.94744 31.2243 1.59332 32.7028 1.59332 34.2026C1.59332 35.7023 1.94744 37.1808 2.62684 38.5178C3.21824 39.5035 3.80964 40.6863 4.79531 41.4748C5.53684 42.0678 6.32833 42.5955 7.16091 43.0519C8.31652 43.4715 9.50286 43.801 10.7093 44.0376C27.6628 44.2347 44.6163 44.2347 61.5698 44.0376C62.5554 44.0376 63.7382 43.4462 64.7081 43.2175" stroke="#182025" stroke-width="3" stroke-miterlimit="10" stroke-linecap="round"/>
<path d="M14.4213 20.5195C14.2466 21.9181 14.2116 23.3307 14.3169 24.7362C12.0736 24.0866 9.67334 24.2467 7.5362 25.1884C5.39906 26.1301 3.66121 27.7935 2.62684 29.8873C1.94744 31.2243 1.59332 32.7028 1.59332 34.2026C1.59332 35.7023 1.94744 37.1808 2.62684 38.5178C3.21824 39.5035 3.80964 40.6863 4.79531 41.4748C5.53684 42.0678 6.32833 42.5955 7.16091 43.0519C8.31652 43.4715 9.50286 43.801 10.7093 44.0376C27.6628 44.2347 44.6163 44.2347 61.5698 44.0376C62.5554 44.0376 63.7382 43.4462 64.7081 43.2175" stroke="black" stroke-opacity="0.2" stroke-width="3" stroke-miterlimit="10" stroke-linecap="round"/>
</svg>
