<svg width="84" height="51" viewBox="0 0 84 51" fill="none" xmlns="http://www.w3.org/2000/svg">
<path d="M61.7494 22.2698C61.4126 20.5013 60.8705 18.7781 60.134 17.1353C59.1828 17.2843 58.2492 17.5299 57.3478 17.8682C56.67 14.3099 55.1703 10.9592 52.9681 8.08328C49.5099 5.44853 45.3843 3.83252 41.0567 3.41756C36.729 3.00259 32.3715 3.80518 28.4757 5.73479C24.5798 7.66439 21.3007 10.6442 19.0082 14.3382C16.7157 18.0321 15.501 22.2932 15.5012 26.6407C15.5012 27.2393 15.5254 27.8313 15.5694 28.419C13.4805 27.7942 11.2531 27.8041 9.16977 28.4474C7.0865 29.0907 5.24127 30.3383 3.86824 32.0321C2.49521 33.7258 1.65627 35.7892 1.45789 37.9605C1.2595 40.1318 1.7106 42.313 2.75395 44.2275C4.3684 45.1092 6.17885 45.5701 8.01834 45.5678H62.3789C64.9409 45.5671 67.4558 44.8784 69.6607 43.5735C71.8656 42.2686 73.6796 40.3955 74.9131 38.15C76.1467 35.9044 76.7545 33.3687 76.6731 30.808C76.5917 28.2472 75.8241 25.7552 74.4504 23.5925C72.5803 22.4037 70.4596 21.6657 68.2554 21.4365C66.0513 21.2074 63.8241 21.4934 61.7494 22.272V22.2698Z" fill="white"/>
<path d="M66.7188 25.5369C66.382 23.7684 65.8398 22.0452 65.1034 20.4024C64.1521 20.5514 63.2186 20.797 62.3171 21.1353C61.6394 17.577 60.1397 14.2263 57.9375 11.3504C54.4793 8.71562 50.3537 7.09961 46.026 6.68465C41.6984 6.26968 37.3409 7.07227 33.445 9.00188C29.5492 10.9315 26.2701 13.9113 23.9776 17.6053C21.6851 21.2992 20.4704 25.5603 20.4705 29.9078C20.4705 30.5064 20.4947 31.0984 20.5387 31.6861C18.4498 31.0613 16.2224 31.0712 14.1391 31.7145C12.0559 32.3578 10.2106 33.6054 8.8376 35.2991C7.46457 36.9929 6.62564 39.0563 6.42725 41.2276C6.22886 43.3988 6.67996 45.5801 7.72331 47.4946C9.33776 48.3763 11.1482 48.8372 12.9877 48.8349H67.3482C69.9103 48.8342 72.4252 48.1455 74.6301 46.8406C76.835 45.5357 78.649 43.6626 79.8825 41.4171C81.1161 39.1715 81.7239 36.6358 81.6425 34.0751C81.5611 31.5143 80.7935 29.0223 79.4198 26.8596C77.5497 25.6708 75.4289 24.9328 73.2248 24.7036C71.0207 24.4744 68.7935 24.7605 66.7188 25.5391V25.5369Z" fill="#B6C4CF"/>
<path d="M17.7195 16.8811C17.7041 16.9229 17.6865 16.9625 17.6711 17.0043C17.6557 17.0462 17.6381 17.0836 17.6227 17.1254" stroke="#182025" stroke-width="3" stroke-linecap="round" stroke-linejoin="round"/>
<path d="M17.7195 16.8811C17.7041 16.9229 17.6865 16.9625 17.6711 17.0043C17.6557 17.0462 17.6381 17.0836 17.6227 17.1254" stroke="black" stroke-opacity="0.2" stroke-width="3" stroke-linecap="round" stroke-linejoin="round"/>
<path d="M81.625 35.28C82.0344 28.0019 76.5829 21.3796 69.362 20.3672C66.9869 20.0331 64.566 20.2979 62.3193 21.1375C60.8998 13.637 55.7168 7.29205 48.8238 4.08764C39.1776 -0.68376 26.6328 3.05766 20.4375 11.9138" stroke="#182025" stroke-width="3" stroke-miterlimit="10" stroke-linecap="round"/>
<path d="M81.625 35.28C82.0344 28.0019 76.5829 21.3796 69.362 20.3672C66.9869 20.0331 64.566 20.2979 62.3193 21.1375C60.8998 13.637 55.7168 7.29205 48.8238 4.08764C39.1776 -0.68376 26.6328 3.05766 20.4375 11.9138" stroke="black" stroke-opacity="0.2" stroke-width="3" stroke-miterlimit="10" stroke-linecap="round"/>
<path d="M77.1749 44.9263C78.4132 43.7514 79.4301 42.3633 80.1769 40.8284" stroke="#182025" stroke-width="3" stroke-miterlimit="10" stroke-linecap="round"/>
<path d="M77.1749 44.9263C78.4132 43.7514 79.4301 42.3633 80.1769 40.8284" stroke="black" stroke-opacity="0.2" stroke-width="3" stroke-miterlimit="10" stroke-linecap="round"/>
<path d="M16.2516 22.579C16.0566 24.1404 16.0175 25.7174 16.1349 27.2866C13.6305 26.5613 10.9508 26.74 8.5649 27.7914C6.17897 28.8427 4.2388 30.6997 3.08401 33.0373C2.32551 34.53 1.93018 36.1806 1.93018 37.8549C1.93018 39.5293 2.32551 41.1799 3.08401 42.6726C3.74426 43.773 4.40451 45.0935 5.50493 45.9738C6.33278 46.6358 7.21642 47.2249 8.14593 47.7345C9.43607 48.2029 10.7605 48.5708 12.1074 48.8349C31.0346 49.055 49.9617 49.055 68.8889 48.8349C69.9893 48.8349 71.3098 48.1746 72.3926 47.9193" stroke="#182025" stroke-width="3" stroke-miterlimit="10" stroke-linecap="round"/>
<path d="M16.2516 22.579C16.0566 24.1404 16.0175 25.7174 16.1349 27.2866C13.6305 26.5613 10.9508 26.74 8.5649 27.7914C6.17897 28.8427 4.2388 30.6997 3.08401 33.0373C2.32551 34.53 1.93018 36.1806 1.93018 37.8549C1.93018 39.5293 2.32551 41.1799 3.08401 42.6726C3.74426 43.773 4.40451 45.0935 5.50493 45.9738C6.33278 46.6358 7.21642 47.2249 8.14593 47.7345C9.43607 48.2029 10.7605 48.5708 12.1074 48.8349C31.0346 49.055 49.9617 49.055 68.8889 48.8349C69.9893 48.8349 71.3098 48.1746 72.3926 47.9193" stroke="black" stroke-opacity="0.2" stroke-width="3" stroke-miterlimit="10" stroke-linecap="round"/>
</svg>
