<svg width="49" height="66" viewBox="0 0 49 66" fill="none" xmlns="http://www.w3.org/2000/svg">
<path d="M37.2607 7.18677C32.1462 7.18656 27.1371 8.82339 22.8179 11.9063C18.4988 14.9891 15.0476 19.3909 12.8672 24.598C10.6868 29.805 9.86697 35.6026 10.5035 41.3143C11.14 47.0259 13.2066 52.416 16.4621 56.8557C20.5825 60.6836 25.62 63.0485 30.9359 63.6507C36.2519 64.2529 41.607 63.0653 46.3226 60.2384C45.2822 59.1974 44.3139 58.0686 43.4261 56.8618C40.2159 53.8796 37.6628 50.1014 35.9668 45.8231C34.2707 41.5448 33.4778 36.8827 33.6501 32.2018C33.8224 27.521 34.9553 22.9487 36.96 18.8429C38.9647 14.7372 41.7867 11.2097 45.2051 8.53658C42.6318 7.642 39.9539 7.187 37.2607 7.18677V7.18677Z" fill="#FFF133"/>
<path d="M35.3143 4.77429C30.2602 3.99077 25.0596 4.84112 20.3192 7.22612C15.5788 9.61112 11.4942 13.4324 8.54202 18.2441C5.58983 23.0558 3.89179 28.6594 3.64603 34.4011C3.40027 40.1429 4.61694 45.7859 7.15406 50.6718C10.6397 55.0856 15.2555 58.1941 20.4164 59.6034C25.5774 61.0127 31.4505 60.2131 36.5434 58.1418C34.9994 57.1124 33.97 56.083 32.9406 55.0536C30.8818 52.9948 29.1392 47.2442 28.1184 42.7566C27.0976 38.2691 27.028 33.5405 27.9152 28.9413C28.8024 24.342 30.6222 19.9971 33.232 16.2469C35.8418 12.4966 39.1709 9.44291 42.9583 7.3249C40.5524 6.04676 37.9757 5.18699 35.3143 4.77429Z" fill="#DACF42"/>
<path d="M4.65939 24.7128C4.58574 24.9218 4.51409 25.1327 4.44641 25.3437" stroke="#182025" stroke-width="3" stroke-linecap="round" stroke-linejoin="round"/>
<path d="M4.65939 24.7128C4.58574 24.9218 4.51409 25.1327 4.44641 25.3437" stroke="black" stroke-opacity="0.2" stroke-width="3" stroke-linecap="round" stroke-linejoin="round"/>
<path d="M3.3198 30.1724C2.51515 35.6632 3.27325 41.2696 5.50727 46.3496C7.74129 51.4295 11.3609 55.7775 15.9515 58.8956C20.5421 62.0137 25.9182 63.7758 31.4638 63.9801C37.0095 64.1844 42.5006 62.8226 47.3082 60.0507C42.8179 57.4572 39.0892 53.7275 36.4968 49.2365C33.9045 44.7455 32.5397 39.6513 32.5397 34.4658C32.5397 29.2802 33.9045 24.186 36.4968 19.695C39.0892 15.204 42.8179 11.4744 47.3082 8.88081C43.9104 6.92143 40.1564 5.65813 36.2652 5.16457C32.374 4.67101 28.4235 4.95706 24.644 6.00605C20.8646 7.05504 17.3317 8.84598 14.2516 11.2744C11.1714 13.7029 8.6055 16.7203 6.70352 20.1506" stroke="#182025" stroke-width="3" stroke-linecap="round" stroke-linejoin="round"/>
<path d="M3.3198 30.1724C2.51515 35.6632 3.27325 41.2696 5.50727 46.3496C7.74129 51.4295 11.3609 55.7775 15.9515 58.8956C20.5421 62.0137 25.9182 63.7758 31.4638 63.9801C37.0095 64.1844 42.5006 62.8226 47.3082 60.0507C42.8179 57.4572 39.0892 53.7275 36.4968 49.2365C33.9045 44.7455 32.5397 39.6513 32.5397 34.4658C32.5397 29.2802 33.9045 24.186 36.4968 19.695C39.0892 15.204 42.8179 11.4744 47.3082 8.88081C43.9104 6.92143 40.1564 5.65813 36.2652 5.16457C32.374 4.67101 28.4235 4.95706 24.644 6.00605C20.8646 7.05504 17.3317 8.84598 14.2516 11.2744C11.1714 13.7029 8.6055 16.7203 6.70352 20.1506" stroke="black" stroke-opacity="0.2" stroke-width="3" stroke-linecap="round" stroke-linejoin="round"/>
</svg>
