<svg width="74" height="79" viewBox="0 0 74 79" fill="none" xmlns="http://www.w3.org/2000/svg">
<path d="M53.9076 19.049C53.6123 17.4586 53.1369 15.909 52.4911 14.4317C51.657 14.5657 50.8384 14.7865 50.0479 15.0907C49.4537 11.8909 48.1386 8.87773 46.2076 6.29151C43.1752 3.92217 39.5576 2.46895 35.7628 2.09579C31.9681 1.72263 28.1471 2.44437 24.731 4.17959C21.3149 5.91482 18.4395 8.59448 16.4293 11.9163C14.4191 15.2381 13.354 19.0699 13.3541 22.9795C13.3541 23.5178 13.3753 24.0502 13.4139 24.5786C11.5822 24.0168 9.62908 24.0258 7.80232 24.6042C5.97557 25.1827 4.35755 26.3047 3.15359 27.8278C1.94963 29.3508 1.21399 31.2064 1.04003 33.159C0.866073 35.1115 1.26163 37.0731 2.17651 38.7947C3.59216 39.5875 5.17968 40.002 6.79267 40H54.4595C56.7061 39.9994 58.9113 39.38 60.8447 38.2066C62.7781 37.0331 64.3688 35.3487 65.4504 33.3294C66.5321 31.31 67.065 29.0298 66.9937 26.727C66.9223 24.4242 66.2492 22.1833 65.0447 20.2384C63.4048 19.1694 61.5452 18.5056 59.6125 18.2996C57.6798 18.0935 55.7268 18.3507 53.9076 19.0509V19.049Z" fill="white"/>
<path d="M58.5036 22.7654C58.2077 21.2116 57.7314 19.6976 57.0844 18.2543C56.2486 18.3852 55.4284 18.601 54.6364 18.8982C54.041 15.772 52.7234 12.8281 50.7886 10.3014C47.7503 7.98659 44.1257 6.56681 40.3235 6.20223C36.5213 5.83765 32.6929 6.54279 29.2702 8.23809C25.8474 9.93339 22.9664 12.5514 20.9523 15.7968C18.9382 19.0422 17.871 22.7859 17.8711 26.6055C17.8711 27.1314 17.8924 27.6516 17.931 28.1678C16.0958 27.619 14.1388 27.6277 12.3085 28.1928C10.4782 28.758 8.85701 29.8541 7.6507 31.3422C6.4444 32.8302 5.70733 34.6431 5.53303 36.5507C5.35873 38.4584 5.75506 40.3748 6.67172 42.0568C8.09013 42.8314 9.68075 43.2364 11.2969 43.2344H59.0566C61.3076 43.2338 63.5171 42.6286 65.4543 41.4822C67.3914 40.3358 68.9852 38.6901 70.0689 36.7172C71.1527 34.7443 71.6867 32.5166 71.6152 30.2667C71.5437 28.0169 70.8693 25.8275 69.6624 23.9275C68.0194 22.883 66.1561 22.2346 64.2196 22.0332C62.2832 21.8319 60.3264 22.0832 58.5036 22.7673V22.7654Z" fill="#B6C4CF"/>
<path d="M19.998 35.5H52.7551" stroke="#182025" stroke-width="3" stroke-linecap="round" stroke-linejoin="round"/>
<path d="M15.4541 15.1605C15.4406 15.1973 15.4251 15.2321 15.4116 15.2688C15.398 15.3055 15.3826 15.3384 15.369 15.3752" stroke="#182025" stroke-width="3" stroke-linecap="round" stroke-linejoin="round"/>
<path d="M71.5999 31.3254C71.9595 24.931 67.17 19.1128 60.8259 18.2234C58.7392 17.9298 56.6123 18.1625 54.6384 18.9001C53.3912 12.3104 48.8376 6.73589 42.7816 3.92057C34.3066 -0.271456 23.2852 3.01565 17.8421 10.7964" stroke="#182025" stroke-width="3" stroke-miterlimit="10" stroke-linecap="round"/>
<path d="M71.5999 31.3254C71.9595 24.931 67.17 19.1128 60.8259 18.2234C58.7392 17.9298 56.6123 18.1625 54.6384 18.9001C53.3912 12.3104 48.8376 6.73589 42.7816 3.92057C34.3066 -0.271456 23.2852 3.01565 17.8421 10.7964" stroke="black" stroke-opacity="0.2" stroke-width="3" stroke-miterlimit="10" stroke-linecap="round"/>
<path d="M67.6901 39.8003C68.7781 38.7681 69.6714 37.5485 70.3275 36.2" stroke="#182025" stroke-width="3" stroke-miterlimit="10" stroke-linecap="round"/>
<path d="M14.1644 20.1666C13.993 21.5385 13.9587 22.9239 14.0619 24.3026C11.8616 23.6654 9.50729 23.8224 7.41107 24.7461C5.31485 25.6698 3.61027 27.3013 2.5957 29.3551C1.9293 30.6665 1.58197 32.1167 1.58197 33.5877C1.58197 35.0587 1.9293 36.5089 2.5957 37.8203C3.17578 38.7871 3.75586 39.9473 4.72266 40.7207C5.44999 41.3024 6.22633 41.8199 7.04297 42.2676C8.17645 42.6792 9.34008 43.0024 10.5234 43.2344C27.1523 43.4278 43.7812 43.4278 60.4102 43.2344C61.377 43.2344 62.5371 42.6543 63.4884 42.43" stroke="#182025" stroke-width="3" stroke-miterlimit="10" stroke-linecap="round"/>
<path d="M29.5326 35.5L25.9632 58.3937H34.5503L29.5326 76.6855L45.3049 51.9742H37.354L45.3049 35.5H29.5326Z" fill="#FFE788"/>
<path d="M37.354 51.9742L43.4371 39.3672H33.4017L30.4337 58.3937H34.5483L33.4887 62.2609H38.4175L38.1738 63.1465L42.8357 55.8414H41.2231L43.089 51.9742H37.354Z" fill="#FFCC00"/>
<path d="M27.1543 50.7483L27.1369 50.8604" stroke="#182025" stroke-width="3" stroke-linecap="round" stroke-linejoin="round"/>
<path d="M26.404 55.563L25.9612 58.3938H34.5483L29.5326 76.6875L45.3049 51.9742H37.354L45.3049 35.5H29.5326L27.9219 45.8293" stroke="#182025" stroke-width="3" stroke-linecap="round" stroke-linejoin="round"/>
</svg>
