<svg width="74" height="79" viewBox="0 0 74 79" fill="none" xmlns="http://www.w3.org/2000/svg">
<path d="M54.2948 19.3495C53.9973 17.7874 53.5184 16.2653 52.8679 14.8142C52.0277 14.9459 51.2031 15.1628 50.4069 15.4616C49.8083 12.3186 48.4836 9.35902 46.5384 6.81876C43.4839 4.49153 39.8398 3.06414 36.0172 2.69761C32.1947 2.33107 28.3458 3.03999 24.9047 4.74437C21.4636 6.44876 18.5672 9.08081 16.5422 12.3436C14.5173 15.6064 13.4444 19.3701 13.4445 23.2102C13.4445 23.7389 13.4659 24.2619 13.5048 24.7809C11.6597 24.2291 9.69223 24.2378 7.8521 24.806C6.01198 25.3742 4.38212 26.4763 3.16935 27.9723C1.95658 29.4683 1.21556 31.2909 1.04033 33.2087C0.865093 35.1266 1.26354 37.0533 2.18512 38.7443C3.61113 39.5231 5.21027 39.9302 6.83506 39.9282H54.8508C57.1138 39.9276 59.3351 39.3192 61.2827 38.1666C63.2302 37.0141 64.8325 35.3596 65.9221 33.3761C67.0116 31.3927 67.5485 29.153 67.4766 26.8911C67.4047 24.6292 66.7267 22.4281 65.5134 20.5178C63.8615 19.4678 61.9883 18.8158 60.0414 18.6134C58.0946 18.411 56.1273 18.6637 54.2948 19.3514V19.3495Z" fill="white"/>
<path d="M58.8118 22.4749C58.5143 20.9127 58.0354 19.3907 57.3849 17.9396C56.5447 18.0712 55.7201 18.2881 54.9238 18.587C54.3252 15.444 53.0005 12.4844 51.0554 9.94413C48.0008 7.61689 44.3568 6.1895 40.5342 5.82297C36.7117 5.45644 32.8627 6.16535 29.4216 7.86974C25.9805 9.57413 23.0841 12.2062 21.0592 15.469C19.0343 18.7318 17.9613 22.4955 17.9615 26.3356C17.9615 26.8643 17.9829 27.3872 18.0217 27.9063C16.1766 27.3545 14.2092 27.3632 12.3691 27.9314C10.5289 28.4996 8.89909 29.6016 7.68632 31.0977C6.47354 32.5937 5.73253 34.4163 5.55729 36.3341C5.38206 38.252 5.78051 40.1787 6.70208 41.8697C8.1281 42.6484 9.72724 43.0556 11.352 43.0536H59.3677C61.6308 43.053 63.8521 42.4446 65.7996 41.292C67.7472 40.1394 69.3495 38.485 70.439 36.5015C71.5286 34.518 72.0655 32.2783 71.9936 30.0164C71.9217 27.7545 71.2437 25.5535 70.0303 23.6432C68.3785 22.5931 66.5053 21.9412 64.5584 21.7388C62.6115 21.5364 60.6443 21.789 58.8118 22.4768V22.4749Z" fill="#B6C4CF"/>
<path d="M15.5316 14.8292C15.518 14.8662 15.5024 14.9011 15.4888 14.9381C15.4752 14.975 15.4597 15.0081 15.446 15.045" stroke="#182025" stroke-width="3" stroke-linecap="round" stroke-linejoin="round"/>
<path d="M15.5316 14.8292C15.518 14.8662 15.5024 14.9011 15.4888 14.9381C15.4752 14.975 15.4597 15.0081 15.446 15.045" stroke="black" stroke-opacity="0.2" stroke-width="3" stroke-linecap="round" stroke-linejoin="round"/>
<path d="M71.9782 31.0807C72.3398 24.6521 67.5246 18.8027 61.1465 17.9085C59.0487 17.6134 56.9103 17.8472 54.9258 18.5889C53.672 11.9639 49.094 6.35944 43.0055 3.52904C34.4852 -0.685459 23.4046 2.61927 17.9324 10.4417" stroke="#182025" stroke-width="3" stroke-miterlimit="10" stroke-linecap="round"/>
<path d="M71.9782 31.0807C72.3398 24.6521 67.5246 18.8027 61.1465 17.9085C59.0487 17.6134 56.9103 17.8472 54.9258 18.5889C53.672 11.9639 49.094 6.35944 43.0055 3.52904C34.4852 -0.685459 23.4046 2.61927 17.9324 10.4417" stroke="black" stroke-opacity="0.2" stroke-width="3" stroke-miterlimit="10" stroke-linecap="round"/>
<path d="M68.0475 39.6011C69.1412 38.5633 70.0394 37.3372 70.699 35.9814" stroke="#182025" stroke-width="3" stroke-miterlimit="10" stroke-linecap="round"/>
<path d="M68.0475 39.6011C69.1412 38.5633 70.0394 37.3372 70.699 35.9814" stroke="black" stroke-opacity="0.2" stroke-width="3" stroke-miterlimit="10" stroke-linecap="round"/>
<path d="M14.2349 19.8622C14.0627 21.2414 14.0282 22.6343 14.1319 24.0203C11.9198 23.3797 9.55288 23.5376 7.44542 24.4662C5.33796 25.3948 3.62425 27.0351 2.60425 29.0999C1.93428 30.4183 1.58508 31.8763 1.58508 33.3552C1.58508 34.8341 1.93428 36.2921 2.60425 37.6105C3.18743 38.5825 3.77062 39.7488 4.7426 40.5264C5.47383 41.1112 6.25433 41.6315 7.07535 42.0816C8.2149 42.4954 9.38477 42.8203 10.5745 43.0536C27.2925 43.248 44.0105 43.248 60.7285 43.0536C61.7005 43.0536 62.8669 42.4704 63.8233 42.2449" stroke="#182025" stroke-width="3" stroke-miterlimit="10" stroke-linecap="round"/>
<path d="M14.2349 19.8622C14.0627 21.2414 14.0282 22.6343 14.1319 24.0203C11.9198 23.3797 9.55288 23.5376 7.44542 24.4662C5.33796 25.3948 3.62425 27.0351 2.60425 29.0999C1.93428 30.4183 1.58508 31.8763 1.58508 33.3552C1.58508 34.8341 1.93428 36.2921 2.60425 37.6105C3.18743 38.5825 3.77062 39.7488 4.7426 40.5264C5.47383 41.1112 6.25433 41.6315 7.07535 42.0816C8.2149 42.4954 9.38477 42.8203 10.5745 43.0536C27.2925 43.248 44.0105 43.248 60.7285 43.0536C61.7005 43.0536 62.8669 42.4704 63.8233 42.2449" stroke="black" stroke-opacity="0.2" stroke-width="3" stroke-miterlimit="10" stroke-linecap="round"/>
<path d="M48.608 52.3029V52.3145C47.5808 52.3149 46.5688 52.5619 45.6569 53.0347C44.7451 53.5076 43.9602 54.1925 43.3681 55.0318C42.776 55.8711 42.3942 56.8404 42.2546 57.858C42.1151 58.8756 42.2219 59.9119 42.5661 60.8796C43.5339 61.2238 44.5701 61.3307 45.5878 61.1911C46.6054 61.0516 47.5746 60.6697 48.4139 60.0776C49.2533 59.4856 49.9382 58.7006 50.411 57.7888C50.8839 56.877 51.1309 55.8649 51.1312 54.8378H51.1429V52.3106L48.608 52.3029Z" fill="#60C3E5"/>
<path d="M45.4037 47.8447V47.8591C44.2496 47.8596 43.1125 48.1649 42.088 48.7493C41.0634 49.3337 40.1815 50.1802 39.5162 51.2176C38.851 52.2549 38.4219 53.4528 38.2651 54.7106C38.1083 55.9683 38.2284 57.249 38.6152 58.4451C39.7025 58.8706 40.8668 59.0026 42.0102 58.8301C43.1536 58.6577 44.2426 58.1857 45.1857 57.4539C46.1287 56.7222 46.8983 55.752 47.4296 54.625C47.9609 53.4981 48.2384 52.2472 48.2388 50.9778H48.2519V47.8543L45.4037 47.8447Z" fill="#A1E7FF"/>
<path d="M31.1608 41.8027V40.8071H30.1547C28.2884 40.8071 26.4986 41.5496 25.1789 42.8712C23.8593 44.1929 23.1179 45.9854 23.1179 47.8545C23.1176 48.1662 23.1388 48.4776 23.1814 48.7864C23.4899 48.8276 23.8007 48.8488 24.112 48.85C25.037 48.8516 25.9534 48.6705 26.8085 48.317C27.6636 47.9636 28.4408 47.4447 29.0955 46.7902C29.7502 46.1356 30.2696 45.3582 30.624 44.5024C30.9784 43.6465 31.1608 42.7291 31.1608 41.8027Z" fill="#60C3E5"/>
<path d="M30.259 64.437V64.4526C28.8722 64.4525 27.5079 64.8036 26.2934 65.473C25.0788 66.1424 24.0535 67.1084 23.313 68.2809C22.5724 69.4534 22.1408 70.7943 22.0582 72.1787C21.9757 73.563 22.2449 74.9457 22.8408 76.1979C24.0932 76.7938 25.476 77.0629 26.8604 76.9803C28.2448 76.8977 29.5858 76.4661 30.7584 75.7256C31.931 74.9851 32.8972 73.9599 33.5668 72.7454C34.2365 71.5309 34.5878 70.1667 34.5881 68.7798H34.6018V64.437H30.259Z" fill="#60C3E5"/>
<path d="M25.1286 39.8018C24.5321 39.8018 23.949 39.9786 23.453 40.3101C22.957 40.6415 22.5704 41.1125 22.3421 41.6636C22.1139 42.2147 22.0541 42.8212 22.1705 43.4062C22.2869 43.9913 22.5741 44.5287 22.9959 44.9505C23.4177 45.3723 23.9552 45.6596 24.5402 45.776C25.1253 45.8923 25.7317 45.8326 26.2828 45.6043C26.8339 45.376 27.305 44.9895 27.6364 44.4935C27.9678 43.9975 28.1447 43.4144 28.1447 42.8178V42.8178V39.8018H25.1286Z" fill="#A2E7FF"/>
<path d="M27.2988 59.9089V59.9264C25.7445 59.9263 24.2154 60.3198 22.8542 61.0701C21.4929 61.8203 20.3438 62.903 19.5138 64.2172C18.6838 65.5314 18.2 67.0343 18.1075 68.5859C18.0149 70.1374 18.3167 71.6872 18.9846 73.0907C20.3882 73.7585 21.938 74.0602 23.4897 73.9676C25.0413 73.875 26.5443 73.3913 27.8586 72.5613C29.1728 71.7314 30.2557 70.5823 31.0062 69.221C31.7567 67.8598 32.1505 66.3308 32.1509 64.7764H32.1661V59.9089H27.2988Z" fill="#A1E7FF"/>
<path d="M26.4819 39.36C25.5864 39.36 24.7111 39.6255 23.9665 40.123C23.222 40.6205 22.6417 41.3276 22.299 42.1549C21.9564 42.9822 21.8667 43.8925 22.0414 44.7707C22.2161 45.649 22.6473 46.4557 23.2805 47.0889C23.9137 47.722 24.7204 48.1532 25.5986 48.3279C26.4769 48.5026 27.3872 48.413 28.2145 48.0703C29.0418 47.7276 29.7489 47.1473 30.2463 46.4028C30.7438 45.6582 31.0094 44.7829 31.0094 43.8875V43.8875V39.36H26.4819Z" stroke="#182025" stroke-width="3" stroke-linecap="round" stroke-linejoin="round"/>
<path d="M26.4819 39.36C25.5864 39.36 24.7111 39.6255 23.9665 40.123C23.222 40.6205 22.6417 41.3276 22.299 42.1549C21.9564 42.9822 21.8667 43.8925 22.0414 44.7707C22.2161 45.649 22.6473 46.4557 23.2805 47.0889C23.9137 47.722 24.7204 48.1532 25.5986 48.3279C26.4769 48.5026 27.3872 48.413 28.2145 48.0703C29.0418 47.7276 29.7489 47.1473 30.2463 46.4028C30.7438 45.6582 31.0094 44.7829 31.0094 43.8875V43.8875V39.36H26.4819Z" stroke="black" stroke-opacity="0.2" stroke-width="3" stroke-linecap="round" stroke-linejoin="round"/>
<path d="M18.7566 65.6947L18.7274 65.7666" stroke="#182025" stroke-width="3" stroke-linecap="round" stroke-linejoin="round"/>
<path d="M18.7566 65.6947L18.7274 65.7666" stroke="black" stroke-opacity="0.2" stroke-width="3" stroke-linecap="round" stroke-linejoin="round"/>
<path d="M18.3348 70.4982C18.7603 72.482 19.9046 74.2382 21.5475 75.4287C23.1904 76.6192 25.2156 77.1599 27.2332 76.9465C29.2509 76.7332 31.1182 75.7809 32.4758 74.2732C33.8333 72.7654 34.5851 70.8087 34.5862 68.7798H34.5999V60.5491H26.3711C24.681 60.5511 23.0333 61.0774 21.6551 62.0556" stroke="#182025" stroke-width="3" stroke-linecap="round" stroke-linejoin="round"/>
<path d="M18.3348 70.4982C18.7603 72.482 19.9046 74.2382 21.5475 75.4287C23.1904 76.6192 25.2156 77.1599 27.2332 76.9465C29.2509 76.7332 31.1182 75.7809 32.4758 74.2732C33.8333 72.7654 34.5851 70.8087 34.5862 68.7798H34.5999V60.5491H26.3711C24.681 60.5511 23.0333 61.0774 21.6551 62.0556" stroke="black" stroke-opacity="0.2" stroke-width="3" stroke-linecap="round" stroke-linejoin="round"/>
<path d="M38.8104 52.3379C38.7987 52.3651 38.789 52.3943 38.7773 52.4234" stroke="#182025" stroke-width="3" stroke-linecap="round" stroke-linejoin="round"/>
<path d="M38.8104 52.3379C38.7987 52.3651 38.789 52.3943 38.7773 52.4234" stroke="black" stroke-opacity="0.2" stroke-width="3" stroke-linecap="round" stroke-linejoin="round"/>
<path d="M38.6938 57.0383C39.2107 58.4548 40.2101 59.6439 41.5164 60.3969C42.8228 61.1499 44.3526 61.4186 45.8374 61.156C47.3221 60.8934 48.667 60.1162 49.6358 58.9608C50.6045 57.8053 51.1354 56.3456 51.1351 54.8378H51.1468V48.4227H44.7317V48.4344C43.8222 48.4331 42.9228 48.6259 42.0938 49.0001" stroke="#182025" stroke-width="3" stroke-linecap="round" stroke-linejoin="round"/>
<path d="M38.6938 57.0383C39.2107 58.4548 40.2101 59.6439 41.5164 60.3969C42.8228 61.1499 44.3526 61.4186 45.8374 61.156C47.3221 60.8934 48.667 60.1162 49.6358 58.9608C50.6045 57.8053 51.1354 56.3456 51.1351 54.8378H51.1468V48.4227H44.7317V48.4344C43.8222 48.4331 42.9228 48.6259 42.0938 49.0001" stroke="black" stroke-opacity="0.2" stroke-width="3" stroke-linecap="round" stroke-linejoin="round"/>
</svg>
