<svg width="73" height="73" viewBox="0 0 73 73" fill="none" xmlns="http://www.w3.org/2000/svg">
<path d="M36.6838 17.7409C33.1528 17.7411 29.6922 18.7281 26.6924 20.5906C23.6926 22.4531 21.2731 25.1169 19.7068 28.2814C18.1405 31.446 17.4898 34.9853 17.8282 38.5C18.1665 42.0147 19.4804 45.3649 21.6217 48.1725C25.2685 50.9521 29.7997 52.3147 34.3748 52.0073C38.9498 51.7 43.2582 49.7438 46.5005 46.5014C49.7428 43.2591 51.6991 38.9508 52.0064 34.3757C52.3137 29.8006 50.9512 25.2694 48.1716 21.6226C44.874 19.0994 40.836 17.7349 36.6838 17.7409V17.7409Z" fill="#FAD183"/>
<path d="M41.1479 23.2865C37.8185 23.2867 34.5555 24.2173 31.7269 25.9734C28.8984 27.7295 26.617 30.2412 25.1401 33.225C23.6633 36.2088 23.0497 39.5459 23.3688 42.8598C23.6878 46.1738 24.9267 49.3326 26.9457 51.9799C30.3843 54.6007 34.6568 55.8854 38.9707 55.5956C43.2845 55.3059 47.3469 53.4613 50.4041 50.4042C53.4613 47.3471 55.3059 43.2848 55.5957 38.9711C55.8854 34.6574 54.6007 30.385 51.9798 26.9465C48.8705 24.5674 45.063 23.2809 41.1479 23.2865V23.2865Z" fill="#F7AD1E"/>
<path d="M17.9054 34.2078C17.7983 35.0303 17.7446 35.8589 17.7445 36.6883C17.7435 41.2077 19.3582 45.5786 22.2971 49.0119C25.2361 52.4452 29.3056 54.7147 33.7711 55.4106C38.2366 56.1066 42.8037 55.1832 46.6481 52.8071C50.4925 50.431 53.3607 46.7588 54.735 42.4535C56.1094 38.1481 55.8992 33.4933 54.1425 29.3293C52.3858 25.1653 49.1983 21.7665 45.1555 19.7465C41.1126 17.7265 36.4808 17.2184 32.0962 18.3139C27.7116 19.4095 23.8632 22.0364 21.2455 25.7206" stroke="#182025" stroke-width="3" stroke-linecap="round" stroke-linejoin="round"/>
<path d="M17.9054 34.2078C17.7983 35.0303 17.7446 35.8589 17.7445 36.6883C17.7435 41.2077 19.3582 45.5786 22.2971 49.0119C25.2361 52.4452 29.3056 54.7147 33.7711 55.4106C38.2366 56.1066 42.8037 55.1832 46.6481 52.8071C50.4925 50.431 53.3607 46.7588 54.735 42.4535C56.1094 38.1481 55.8992 33.4933 54.1425 29.3293C52.3858 25.1653 49.1983 21.7665 45.1555 19.7465C41.1126 17.7265 36.4808 17.2184 32.0962 18.3139C27.7116 19.4095 23.8632 22.0364 21.2455 25.7206" stroke="black" stroke-opacity="0.2" stroke-width="3" stroke-linecap="round" stroke-linejoin="round"/>
<path d="M19.0956 29.6613C19.0653 29.7345 19.0349 29.806 19.0063 29.8793" stroke="#182025" stroke-width="3" stroke-linecap="round" stroke-linejoin="round"/>
<path d="M19.0956 29.6613C19.0653 29.7345 19.0349 29.806 19.0063 29.8793" stroke="black" stroke-opacity="0.2" stroke-width="3" stroke-linecap="round" stroke-linejoin="round"/>
<path d="M36.6884 2.375V12.9192" stroke="#182025" stroke-width="3" stroke-linecap="round" stroke-linejoin="round"/>
<path d="M36.6884 2.375V12.9192" stroke="black" stroke-opacity="0.2" stroke-width="3" stroke-linecap="round" stroke-linejoin="round"/>
<path d="M36.6884 60.4576V71.0001" stroke="#182025" stroke-width="3" stroke-linecap="round" stroke-linejoin="round"/>
<path d="M36.6884 60.4576V71.0001" stroke="black" stroke-opacity="0.2" stroke-width="3" stroke-linecap="round" stroke-linejoin="round"/>
<path d="M12.426 12.4259L19.882 19.8801" stroke="#182025" stroke-width="3" stroke-linecap="round" stroke-linejoin="round"/>
<path d="M12.426 12.4259L19.882 19.8801" stroke="black" stroke-opacity="0.2" stroke-width="3" stroke-linecap="round" stroke-linejoin="round"/>
<path d="M53.4948 53.4946L60.9508 60.9506" stroke="#182025" stroke-width="3" stroke-linecap="round" stroke-linejoin="round"/>
<path d="M53.4948 53.4946L60.9508 60.9506" stroke="black" stroke-opacity="0.2" stroke-width="3" stroke-linecap="round" stroke-linejoin="round"/>
<path d="M2.375 36.6884H12.9192" stroke="#182025" stroke-width="3" stroke-linecap="round" stroke-linejoin="round"/>
<path d="M2.375 36.6884H12.9192" stroke="black" stroke-opacity="0.2" stroke-width="3" stroke-linecap="round" stroke-linejoin="round"/>
<path d="M60.4575 36.6884H71.0017" stroke="#182025" stroke-width="3" stroke-linecap="round" stroke-linejoin="round"/>
<path d="M60.4575 36.6884H71.0017" stroke="black" stroke-opacity="0.2" stroke-width="3" stroke-linecap="round" stroke-linejoin="round"/>
<path d="M12.426 60.9506L19.882 53.4946" stroke="#182025" stroke-width="3" stroke-linecap="round" stroke-linejoin="round"/>
<path d="M12.426 60.9506L19.882 53.4946" stroke="black" stroke-opacity="0.2" stroke-width="3" stroke-linecap="round" stroke-linejoin="round"/>
<path d="M53.4948 19.8801L60.9508 12.4259" stroke="#182025" stroke-width="3" stroke-linecap="round" stroke-linejoin="round"/>
<path d="M53.4948 19.8801L60.9508 12.4259" stroke="black" stroke-opacity="0.2" stroke-width="3" stroke-linecap="round" stroke-linejoin="round"/>
</svg>
